<?xml version="1.0" encoding="UTF-8" standalone="no"?>
<!-- Created with Inkscape (http://www.inkscape.org/) -->

<svg
   version="1.1"
   id="svg2"
   xml:space="preserve"
   width="3253.4934"
   height="3710.0266"
   viewBox="0 0 3253.4934 3710.0266"
   sodipodi:docname="vecteezy_cartoon-genie-presenting_8388643.eps"
   xmlns:inkscape="http://www.inkscape.org/namespaces/inkscape"
   xmlns:sodipodi="http://sodipodi.sourceforge.net/DTD/sodipodi-0.dtd"
   xmlns="http://www.w3.org/2000/svg"
   xmlns:svg="http://www.w3.org/2000/svg"><defs
     id="defs6" /><sodipodi:namedview
     id="namedview4"
     pagecolor="#ffffff"
     bordercolor="#666666"
     borderopacity="1.0"
     inkscape:pageshadow="2"
     inkscape:pageopacity="0.0"
     inkscape:pagecheckerboard="0" /><g
     id="g8"
     inkscape:groupmode="layer"
     inkscape:label="ink_ext_XXXXXX"
     transform="matrix(1.3333333,0,0,-1.3333333,0,3710.0267)"><g
       id="g10"
       transform="scale(0.1)"><path
         d="m 10102.5,10634.4 c 43.6,-1165.9 492.2,-1978.2 948,-2800.3 610.2,-1100.5 697.3,-2004.9 610.2,-3061.8 -87.2,-1056.9 -163.5,-2353.5 392.2,-3334.2 555.7,-980.6 1612.6,-1499.9984 2673.2,-1376.6 1060.5,123.5 1721.6,980.7 2099.3,1634.5 377.8,653.8 697.4,1278.4 1111.4,1598.1 414.1,319.6 888.1,334.1 964.3,334.1 76.3,0 70.9,294.2 -533.9,305.1 -604.7,10.9 -1116.8,-250.6 -1716.1,-1067.8 -599.3,-817.2 -922.6,-1024.3 -1205.9,-1104.1 -283.3,-80 -755.4,-145.3 -1067.8,203.3 -138,290.6 -265.1,1140.5 203.4,2262.8 468.5,1122.3 1139.4,2149.6 1540,3526.7 464.9,1598.1 450.4,3341.5 334.2,4198.7 -929.8,188.8 -6352.5,-1318.5 -6352.5,-1318.5"
         style="fill:#00a7e8;fill-opacity:1;fill-rule:nonzero;stroke:none"
         id="path12" /><path
         d="m 18367.2,3933.3 c -604.7,10.9 -1116.8,-250.6 -1716.1,-1067.8 -599.3,-817.2 -922.6,-1024.3 -1205.9,-1104.1 -160.7,-45.4 -382.2,-85.9 -600.8,-48.8 575.4,-252.7 1080,70.3 1374.5,364.7 366.3,366.4 582.1,809.4 984.3,1180.4 455.2,420 908,675.9 1667,439.5 0,178 -254,231.6 -503,236.1"
         style="fill:#71deff;fill-opacity:1;fill-rule:nonzero;stroke:none"
         id="path14" /><path
         d="m 12052.9,6025.3 c -43.6,1569.1 -1307.5,2702.3 -1656.2,4271.4 -39.6,138.5 -70,268 -79.3,396.7 -137.2,-37.4 -214.9,-59 -214.9,-59 43.6,-1165.9 492.2,-1978.2 948,-2800.3 610.2,-1100.5 697.3,-2004.9 610.2,-3061.8 -72.4,-877.4 -136.9,-1919.9 161.1,-2809.7 -248.3,1624.9 268.7,2708.5 231.1,4062.7"
         style="fill:#71deff;fill-opacity:1;fill-rule:nonzero;stroke:none"
         id="path16" /><path
         d="M 17057.8,2720.2 C 16360.5,1674.2 15768.5,326.699 14057.8,490.199 12930.4,597.898 12231.1,1295.7 11750.3,2203.9 c 69.4,-268.6 167.1,-526.6 302.6,-765.8 555.7,-980.6 1612.6,-1499.9984 2673.2,-1376.6 1060.5,123.5 1721.6,980.7 2099.3,1634.5 377.8,653.8 697.4,1278.4 1111.4,1598.1 414.1,319.6 888.1,334.1 964.3,334.1 12.9,0 23.3,8.5 29,22.5 -832.7,82 -1452.6,-282 -1872.3,-930.5"
         style="fill:#007eb5;fill-opacity:1;fill-rule:nonzero;stroke:none"
         id="path18" /><path
         d="m 14969.3,9599.3 c 217.9,-130.8 276.2,-1035.1 0,-1819.7 -235.7,-669.2 -1102.5,-3117.7 -1191.4,-3541.2 -123.2,-586.6 -177.1,-1179.5 -25.2,-1787 174.3,-828.1 828.1,-1612.599 1787,-1525.4 -381.6,213.8 -730.1,228.8 -1162.3,1038.7 -138,290.6 -265.1,1140.5 203.4,2262.8 468.5,1122.3 1139.4,2149.6 1540,3526.7 464.9,1598.1 450.4,3341.5 334.2,4198.7 -717.6,145.7 -4110.1,-718.5 -5622.1,-1120.8 15.9,-18.5 30.7,-37.2 43.2,-56 1046,-1176.8 2686.3,-1191.3 4093.2,-1176.8"
         style="fill:#007eb5;fill-opacity:1;fill-rule:nonzero;stroke:none"
         id="path20" /><path
         d="m 14949.6,1237.9 c -21.2,13.5 -519.6,336.3 -665,852.2 l 83.9,23.6 c 136.5,-484.2 581.1,-875.8 581.1,-875.8"
         style="fill:#1c2649;fill-opacity:1;fill-rule:nonzero;stroke:none"
         id="path22" /><path
         d="m 10147.5,10601.7 c 51,-1141 503.4,-1957.1 941.1,-2746.4 628.6,-1133.8 700.6,-2053.9 615.5,-3086.6 -95.7,-1160.2 -144.6,-2371.3 386.7,-3309.1 C 12570.5,613 13461.7,87.1992 14416.7,87.1992 c 101.3,0 203.6,5.9024 304.3,17.6988 807.2,93.903 1502.6,636.602 2066.7,1612.902 50.7,87.7 100.3,174.9 149.2,260.9 312.7,549.1 607.9,1067.8 973.3,1349.9 409.5,316 868.9,341.8 980.9,343.1 1,8 0,24.1 -12.5,46.3 -21.5,38.5 -122.3,164.7 -512.2,171.7 -628.9,12.1 -1130.1,-299.8 -1680.1,-1050 -593.7,-809.5 -920.8,-1033.3 -1229.2,-1120.3 -153.1,-43.2 -299.2,-65.1 -434.2,-65.1 -282.7,0 -510.8,94.7 -678,281.4 l -6.9,10.3 c -139.3,293.5 -276.3,1151.3 202.6,2298.3 169.1,405 360.6,789.9 563.3,1197.5 353.8,711.2 719.6,1446.6 975,2324.6 478,1642.7 438.3,3364.3 337.1,4149 -46.3,6.8 -103.3,10.3 -170.3,10.3 -1261.2,0 -5669.2,-1205.9 -6098.2,-1324 z M 14416.7,0 c -986.3,0 -1906.6,542.801 -2401.7,1416.6 -543.6,959.3 -494.6,2185.6 -397.8,3359.3 83.9,1016.9 13.1,1922.6 -604.9,3037.1 -447,806.2 -909.3,1639.9 -953.3,2819.8 l -1.3,34.4 33.1,9.2 c 196.4,54.6 4823.5,1336.4 6154.9,1336.4 88.3,0 161.5,-5.8 217.9,-17.2 l 30.4,-6.2 4.2,-30.7 c 105.2,-776 153,-2537.5 -335.6,-4216.6 C 15905,6856.6 15537.5,6117.6 15182,5403 c -202.1,-406.3 -393,-789.9 -561,-1192.3 -463.9,-1111.2 -339.5,-1935 -206.9,-2221.6 149.6,-164.3 354.4,-247.6 608.8,-247.6 127,0 265.1,20.8 410.5,61.8 251.9,71.1 569.5,252 1182.5,1088 568.7,775.4 1091.1,1097.4 1752.1,1085.6 484,-8.7 611.5,-193.5 610.5,-301.3 -0.4,-52.7 -33,-91 -77.4,-91 -52.8,0 -528.4,-9.1 -937.6,-325.1 -351.6,-271.3 -642.7,-782.6 -950.8,-1323.9 -49,-86.2 -98.8,-173.5 -149.5,-261.4 C 16284.5,672.699 15567.2,115.602 14731.1,18.3008 14627.1,6.10156 14521.4,0 14416.7,0"
         style="fill:#1c2649;fill-opacity:1;fill-rule:nonzero;stroke:none"
         id="path24" /><path
         d="m 9541.35,18828.3 c -441.3,-59.9 -2035.78,-584.8 -2210.11,-2124.7 -406.77,-72.6 -1154.98,-617.5 -1300.25,-1300.3 -421.35,290.6 -1485.54,635.6 -2248.22,755.5 -762.74,119.8 -969.81,457.6 -1318.46,403.1 -348.66,-54.5 -572.04,-228.8 -839.01,-321.4 -266.97,-92.6 -604.74,-125.3 -784.538,-98.1 -179.742,27.3 -414.024,21.8 -414.024,-158 0,-179.8 179.801,-441.3 740.952,-528.4 -228.811,-201.6 -390.893,-330.2 -624.737,-517.6 -246.961,-198 -546.61706,-310.5 -492.1444,-430.4 54.4804,-119.8 239.7074,-141.6 593.8364,0 -125.274,-136.2 -346.157,-238.6 -441.293,-301.4 -101.692,-67.2 -128.9028,-172.6 -63.528,-219.8 68.731,-49.6 337.758,-50.8 530.242,43.6 -61.738,-76.3 -319.601,-272.4 -265.121,-392.3 54.481,-119.8 359.551,-132.5 724.575,69.1 -70.79,-141.7 -59.89,-238.3 49.06,-301.6 108.95,-63.5 365.03,29.1 675.52,312.5 310.55,283.2 1002.49,791.7 1278.52,1590.8 443.08,-595.7 1038.76,-1169.5 1576.27,-1583.6 537.57,-414.1 1510.95,-908 1852.35,-915.3 341.44,-7.2 472.19,319.7 690.1,494 217.9,174.3 1794.23,806.3 2426.23,2680.4 435.83,1372.9 163.43,2702.3 -136.22,2843.9"
         style="fill:#00a7e8;fill-opacity:1;fill-rule:nonzero;stroke:none"
         id="path26" /><path
         d="m 7520.09,16921.5 c 311.86,1006.1 1228.21,1474.5 2140.18,1785.3 -38.05,60.4 -78.16,102.3 -118.92,121.5 -441.3,-59.9 -2035.78,-584.8 -2210.11,-2124.7 -406.77,-72.6 -1154.98,-617.5 -1300.25,-1300.3 -421.35,290.6 -1485.54,635.6 -2248.22,755.5 -762.74,119.8 -969.81,457.6 -1318.46,403.1 -348.66,-54.5 -572.04,-228.8 -839.01,-321.4 -266.97,-92.6 -604.74,-125.3 -784.538,-98.1 -167.059,25.4 -380.907,22.2 -410.34,-122.6 154.324,31.8 267.621,9.7 430.344,-8.2 269.514,-29.5 541.144,7.3 805.404,87.3 379.6,114.7 548.73,370.1 928.88,275.1 334.18,-55.7 788.38,-368.7 1116.87,-419 699.76,-107.2 1390.73,-325.1 2021.26,-646.1 399.49,-203.4 786.15,-533.9 916.95,-1013.4 207.02,474 -306.81,1056.9 -263.23,1231.3 87.17,697.3 1046.03,1264 1830.56,958.8 -130.75,218 -435.82,392.3 -697.37,435.9"
         style="fill:#71deff;fill-opacity:1;fill-rule:nonzero;stroke:none"
         id="path28" /><path
         d="m 1623.35,15819.1 c -155.47,-103.6 -372.13,-305 -455.66,-363.1 -228.811,-201.6 -390.893,-330.2 -624.737,-517.6 -211.89,-169.8 -461.8319,-276.8 -494.4139,-379.4 160.2849,0 498.4259,228 734.1169,404.8 317.114,237.9 631.774,530.4 840.694,855.3"
         style="fill:#71deff;fill-opacity:1;fill-rule:nonzero;stroke:none"
         id="path30" /><path
         d="m 400.879,13698.7 c 414.461,273.6 904.821,516.9 1036.491,860.3 6.28,16.3 -54.11,45.8 -106.25,52.5 -159.81,-316 -544.725,-510.5 -661.054,-581.1 C 617.922,13966 426.25,13816 400.879,13698.7"
         style="fill:#71deff;fill-opacity:1;fill-rule:nonzero;stroke:none"
         id="path32" /><path
         d="m 1922.24,14442.6 c -87.16,0 -133.51,38.1 -177.1,-5.4 -108.52,-289.5 -342.9,-578.5 -621.47,-743.3 -30.19,-63.9 -43.42,-118.6 -37.13,-164.6 233.68,134.2 560.54,419.6 835.7,913.3"
         style="fill:#71deff;fill-opacity:1;fill-rule:nonzero;stroke:none"
         id="path34" /><path
         d="m 1156.79,14873 c -228.591,-32.6 -334.837,-261 -520.388,-373.4 -126.507,-132 -339.922,-231.6 -433.05,-293 -55.239,-36.6 -87.598,-84.2 -96.004,-127.7 412.136,169 845.41,386.1 1049.442,794.1"
         style="fill:#71deff;fill-opacity:1;fill-rule:nonzero;stroke:none"
         id="path36" /><path
         d="m 428.586,15955 c 18.637,-177.7 207.652,-416.3 738.554,-498.9 213.09,140.8 344.65,278.6 547.98,436.7 -440.16,-120 -901.839,-250.2 -1286.534,62.2"
         style="fill:#007eb5;fill-opacity:1;fill-rule:nonzero;stroke:none"
         id="path38" /><path
         d="m 1549.03,14524.3 c -201.76,-484.1 -664.956,-855.9 -1147.553,-874 1.086,-4.1 1.679,-8.2 3.468,-12.2 54.481,-119.8 359.551,-132.5 724.575,69.1 -8.24,-16.6 -14.91,-32.2 -20.87,-47.5 300.63,198.9 517.08,525.4 701.87,821 -87.16,-43.5 -261.49,87.2 -261.49,43.6"
         style="fill:#007eb5;fill-opacity:1;fill-rule:nonzero;stroke:none"
         id="path40" /><path
         d="m 1200.37,14829.5 c -120.44,-481.8 -766.366,-787.2 -1095.893,-770.8 -0.383,-28.7 11.007,-54.3 35.347,-71.9 68.731,-49.6 337.758,-50.8 530.242,43.6 -6.07,-7.5 -14.418,-16.5 -23.796,-26.1 294.992,133.9 545.59,328.7 684.85,607.2 43.58,43.6 -130.75,87.2 -130.75,218"
         style="fill:#007eb5;fill-opacity:1;fill-rule:nonzero;stroke:none"
         id="path42" /><path
         d="m 1113.21,15047.4 c -299.659,-294.2 -700.081,-531.2 -1068.3077,-518 0.8165,-7.1 2.6602,-14.2 5.9063,-21.4 47.6562,-104.8 195.3084,-134.6 468.5154,-45.7 296.563,146 626.296,293.1 593.886,585.1"
         style="fill:#007eb5;fill-opacity:1;fill-rule:nonzero;stroke:none"
         id="path44" /><path
         d="m 9872.49,17979.4 c -444.71,-1405.9 -1035.72,-2823.1 -2178.02,-3760.1 -217.95,-261.5 -631.99,-218 -762.73,-479.4 -87.17,-174.4 -167.07,-425 -370.5,-479.5 -290.56,-32.7 -1130.48,420.9 -1707.02,791.8 -771.8,496.5 -1457.83,1141.6 -1732.23,1964.9 -222.67,-1113.2 -1061.63,-1984.4 -2018.16,-2538.3 15.28,-28.1 39.3,-52.6 74.75,-73.2 108.95,-63.5 365.03,29.1 675.52,312.5 310.55,283.2 1002.49,791.7 1278.52,1590.8 443.08,-595.7 1038.76,-1169.5 1576.27,-1583.6 537.57,-414.1 1510.95,-908 1852.35,-915.3 341.44,-7.2 472.19,319.7 690.1,494 217.9,174.3 1794.23,806.3 2426.23,2680.4 233.79,736.5 263.65,1460.2 194.92,1995"
         style="fill:#007eb5;fill-opacity:1;fill-rule:nonzero;stroke:none"
         id="path46" /><path
         d="m 1748.83,14412.6 c -95.46,13.8 -193.29,42.1 -285.72,91.5 -105.81,56.5 -183.44,123.8 -240.35,191.9 -150.21,179.6 -110.26,366.3 -110.26,366.3 0,0 53.34,-300.4 391.7,-481.4 346.16,-185 796.23,-35 800.74,-33.5 0,0 -285.99,-174.3 -556.11,-134.8"
         style="fill:#1c2649;fill-opacity:1;fill-rule:nonzero;stroke:none"
         id="path48" /><path
         d="m 1031.95,13609.8 -34.368,80.1 c 381.558,163.9 739.048,770.8 742.628,776.9 l 75.29,-43.9 c -15.17,-26 -375.86,-638 -783.55,-813.1"
         style="fill:#1c2649;fill-opacity:1;fill-rule:nonzero;stroke:none"
         id="path50" /><path
         d="m 579.758,13948.9 -29,82.2 c 394.246,138.9 777.322,610.3 781.122,615.1 l 67.92,-54.7 c -16.21,-20.2 -402.269,-495.4 -820.042,-642.6"
         style="fill:#1c2649;fill-opacity:1;fill-rule:nonzero;stroke:none"
         id="path52" /><path
         d="m 538.563,14422.9 -30.571,81.6 c 318.137,119.1 600.818,438.5 603.648,441.7 l 65.53,-57.5 c -12.09,-13.8 -299.654,-338.9 -638.607,-465.8"
         style="fill:#1c2649;fill-opacity:1;fill-rule:nonzero;stroke:none"
         id="path54" /><path
         d="m 3132.45,15184.5 -81.31,31.5 c 121.26,312.8 89.66,512.1 89.4,514.1 0,0 122.77,-208 -8.09,-545.6"
         style="fill:#1c2649;fill-opacity:1;fill-rule:nonzero;stroke:none"
         id="path56" /><path
         d="m 1083.23,15324.7 -55.83,67 c 247.34,206.5 687.72,501.1 687.72,501.1 -3.8,-3.6 -382.49,-359.9 -631.89,-568.1"
         style="fill:#1c2649;fill-opacity:1;fill-rule:nonzero;stroke:none"
         id="path58" /><path
         d="m 2318.71,14827.9 c 0,0 -48.08,325.8 52.79,512.6 100.07,185.3 391.86,347.5 391.86,347.5 -2.17,-2.2 -221.49,-215.5 -315.15,-389 -92.91,-172 -129.12,-468.1 -129.5,-471.1"
         style="fill:#1c2649;fill-opacity:1;fill-rule:nonzero;stroke:none"
         id="path60" /><path
         d="m 6650.13,14501.5 c -1.52,5.2 -155.79,524.2 -686.31,894 l 49.82,71.5 c 557.08,-388.3 636.49,-965.5 636.49,-965.5"
         style="fill:#1c2649;fill-opacity:1;fill-rule:nonzero;stroke:none"
         id="path62" /><path
         d="m 7263.48,14683 c 2.6,0.6 263.39,62.6 569.87,322.6 303.07,257.1 354.89,660.4 355.38,664.4 0,0 29.87,-451.9 -299,-730.9 -324.05,-274.9 -626.25,-256.1 -626.25,-256.1"
         style="fill:#1c2649;fill-opacity:1;fill-rule:nonzero;stroke:none"
         id="path64" /><path
         d="m 7972.55,16632.7 c -3.73,1.2 -380.8,111.1 -722.41,5.8 l -25.69,83.4 c 367.53,113.1 748.1,-89.2 748.1,-89.2"
         style="fill:#1c2649;fill-opacity:1;fill-rule:nonzero;stroke:none"
         id="path66" /><path
         d="m 3118.36,15401.1 49.22,-66.2 c 406.71,-546.7 978.21,-1120.8 1567.92,-1575.1 552.04,-425.2 1508.03,-899.4 1826.66,-906.2 l 10.29,-0.1 v 0 c 210.6,0 332.94,141.3 462.55,290.8 58.76,67.9 119.58,138 189.13,193.7 35.93,28.8 101.63,66.5 192.54,118.7 505.58,290.1 1689.51,969.7 2219.59,2541.7 430.34,1355.5 153.57,2632.1 -102.77,2784.8 -435.45,-65.7 -1989.76,-590.1 -2158.94,-2084.5 l -3.63,-32.3 -32.04,-5.7 c -412.08,-73.6 -1126.95,-616.3 -1265.29,-1266.5 l -13.55,-63.9 -53.83,37.1 c -397.93,274.5 -1440.1,624.1 -2230.22,748.3 -398.69,62.6 -645,182.4 -842.91,278.7 -149.22,72.5 -267.13,129.8 -393.75,129.8 -22.5,0 -45.48,-1.8 -68.3,-5.3 -215.75,-33.8 -383.3,-115.3 -545.26,-194.2 -96.12,-46.7 -186.86,-90.9 -286.16,-125.4 -195.15,-67.7 -445.91,-109.8 -654.442,-109.8 -57.297,0 -108.082,3.3 -150.906,9.9 -50.957,7.7 -98.871,11.6 -142.403,11.6 -147.007,0 -221.535,-42.6 -221.535,-126.6 0,-173.4 184.406,-404.6 704.026,-485.4 l 91.93,-14.2 -69.81,-61.6 c -215.036,-189.4 -369.146,-312.8 -582.454,-483.7 l -43.801,-35.1 C 485.008,14836.1 394.156,14778.1 313.93,14726.8 194.027,14650.3 70.0586,14571 90.4922,14526 c 22.2268,-48.9 73.6638,-72.6 157.2028,-72.6 94.856,0 223.004,32 380.743,95.1 l 178.23,71.2 -129.934,-141.2 c -96.429,-104.9 -244.742,-189.4 -352.992,-251.2 -38.699,-22 -72.199,-41.1 -96.379,-57.1 -57.675,-38.2 -78.867,-84 -79.414,-111.6 -0.324,-15.9 5.313,-27.8 17.348,-36.5 12.957,-9.3 58.926,-25.1 149.18,-25.1 118.062,0 243.82,27.1 336.406,72.5 l 177.418,87 -124.348,-153.5 c -16.262,-20.1 -42.769,-45.8 -73.457,-75.5 -75.07,-72.6 -214.766,-207.8 -185.867,-271.3 17.23,-37.9 83.414,-61.5 172.754,-61.5 81.637,0 253.902,19.6 491.107,150.6 l 122.72,67.8 -62.71,-125.4 c -76.87,-153.8 -30.03,-208.4 31.99,-244.5 15.01,-8.7 35.12,-13.1 59.78,-13.1 133.73,0 344.76,119.6 564.51,320.2 43.31,39.5 94.1,83.4 150.09,131.9 351.48,304.2 882.65,763.8 1116.55,1440.9 z m 3454.09,-2634.8 v 0 l -12.14,0.2 c -368.88,7.8 -1357.5,523.3 -1877.98,924.2 -572.8,441.2 -1128.74,994.7 -1536.32,1528 C 2891.29,14560 2356.32,14097 2031.9,13816.2 c -55.35,-47.8 -105.54,-91.3 -148.41,-130.3 -238.9,-218 -466.03,-343 -623.22,-343 -40.27,0 -75.18,8.4 -103.65,25 -119.68,69.6 -127,169.4 -108.41,249.2 -153.616,-71.1 -303.605,-109.5 -430.827,-109.5 -127.711,0 -219.598,41 -252.121,112.5 -44.774,98.5 48.898,214 144.355,310.8 -63.687,-13.7 -130.527,-21.1 -195.14,-21.1 -53.239,0 -149.997,5.4 -200.188,41.7 -35.4531,25.6 -54.4257,64.2 -53.5038,108.9 1.3632,66.1 45.6988,134.4 118.5508,182.5 26.559,17.6 61.148,37.3 101.266,60.2 44.601,25.4 96.375,54.9 147.812,87.9 -67.976,-16.5 -128.41,-24.8 -180.719,-24.8 -149.0192,0 -210.8708,67.3 -236.5583,123.8 -51.7148,113.8 84.0156,200.5 255.8513,310.3 78.383,50 167.176,106.7 248.7,172.1 l 43.796,35.1 c 189.133,151.5 331.528,265.6 511.166,421.5 -505.306,102.7 -687.498,358.8 -687.498,555.4 0,79.8 40.114,213.7 308.707,213.7 47.868,0 100.176,-4.2 155.461,-12.6 38.543,-5.8 84.891,-8.8 137.848,-8.8 199.482,0 439.292,40.2 625.872,104.9 94.37,32.8 182.84,75.9 276.56,121.5 167.77,81.7 341.34,166.2 569.99,201.9 27.26,4.3 54.79,6.4 81.74,6.4 146.68,0 272.55,-61.2 431.86,-138.6 192.71,-93.7 432.57,-210.3 818.3,-271 768.11,-120.7 1774.08,-453.6 2213.58,-728.2 171.56,641.1 863.02,1170.7 1288.65,1266.4 195.74,1542.2 1817.05,2073.5 2243.77,2131.5 l 12.79,1.8 11.71,-5.6 c 321.01,-151.8 609.01,-1479.3 159.1,-2896.5 -540.82,-1603.9 -1744.85,-2295 -2259,-2590.1 -84.24,-48.4 -150.8,-86.6 -181.54,-111.2 -63.31,-50.6 -118.88,-114.8 -177.69,-182.6 -136.66,-157.8 -278.08,-321 -528.41,-321"
         style="fill:#1c2649;fill-opacity:1;fill-rule:nonzero;stroke:none"
         id="path68" /><path
         d="m 21466.6,2254.3 c -49,-183.8 -122.9,-525.9 -5.6,-550 117.2,-24 522,-91.7 581.6,8.6 59.6,100.3 -1.6,413.3 -26.4,509.9 -24.9,96.4 -500.7,93.1 -549.6,31.5"
         style="fill:#ffaf23;fill-opacity:1;fill-rule:nonzero;stroke:none"
         id="path70" /><path
         d="m 21595.2,2262.1 c -42.6,-7.5 -117.9,5.8 -128.6,-7.8 -49,-183.8 -122.9,-525.9 -5.6,-550 2.1,-0.5 63.6,-4.7 66,-5.2 -26.7,192.7 23.3,376.6 68.2,563"
         style="fill:#ffd592;fill-opacity:1;fill-rule:nonzero;stroke:none"
         id="path72" /><path
         d="m 22016.2,2222.8 c -12,46.6 -129.8,69.9 -253.7,74.5 83,-258.2 17.4,-446.2 -114,-623.4 159.6,-19.9 354.2,-28.2 394.1,39 59.6,100.3 -1.6,413.3 -26.4,509.9"
         style="fill:#ea840a;fill-opacity:1;fill-rule:nonzero;stroke:none"
         id="path74" /><path
         d="m 21501.9,2231.6 c -63,-239.6 -80.9,-421.8 -46.9,-477 5.3,-8.5 10,-10.5 13.9,-11.3 71.9,-14.7 193.9,-34.4 301.3,-41.3 205.7,-13.1 235.4,26.6 238.2,31.3 45.6,76.8 2.5,350.2 -30.8,479.5 -4.7,7.5 -50.4,34.6 -186.9,43.2 -137,8.8 -257.5,-8 -288.8,-24.4 z m 263.3,-609.1 v 0 c -143.7,9.2 -285.4,37.3 -312.2,42.8 -27.3,5.6 -50,22 -65.7,47.5 -49.3,79.7 -35.5,265.3 40.8,551.7 l 2.3,8 5,6.6 c 59.4,74.7 357.4,56.7 360.4,56.5 156.8,-10 243.9,-44.6 259,-102.9 1,-4 102.6,-404.5 22,-540.1 -35,-59.1 -134.1,-81.4 -311.6,-70.1"
         style="fill:#8c3200;fill-opacity:1;fill-rule:nonzero;stroke:none"
         id="path76" /><path
         d="m 21664.9,3750.6 c 373.7,-8.8 1138.2,-344.3 1412.1,-314.3 273.7,30 581.1,272.4 936.1,204.9 354.9,-67.5 438.6,-503.6 251.1,-784.4 -187.5,-280.8 -535.7,-258.8 -681.8,-259.3 -225.7,-0.8 -466.9,-6.9 -568.7,-50.3 -12.8,60.7 100.1,213.2 315.8,206.1 215.8,-7.1 502.2,11.3 675.6,175 160.1,151.1 206.9,520.7 -108.1,484.1 -315,-36.5 -492.3,-236.4 -674,-424.5 -181.6,-188.1 -456.8,-545.3 -830.4,-740.5 -485.1,-253.6 -1196.4,-173.6 -1648.2,209.6 -312.5,265.1 -732.6,640.4 -1120.7,814.7 -388.1,174.4 -901.5,259.7 -878.5,386.6 23,126.8 168.1,214.3 367.3,204.7 417.8,-19.8 965.9,-450.6 1409,-438.8 443.2,11.7 650.8,347.8 1143.4,326.4"
         style="fill:#ffaf23;fill-opacity:1;fill-rule:nonzero;stroke:none"
         id="path78" /><path
         d="m 19223.9,3732.6 c 438.3,-117 783.4,-421.4 1292.1,-421.4 355.4,-0.1 747.7,223.2 807.9,393.3 -277.9,-88.3 -476.7,-271.7 -802.4,-280.3 -443.1,-11.8 -991.2,419 -1409,438.8 -132.8,6.4 -241.2,-30.5 -305.8,-93.2 137.2,-0.6 270.5,-3 417.2,-37.2"
         style="fill:#ffd592;fill-opacity:1;fill-rule:nonzero;stroke:none"
         id="path80" /><path
         d="m 24013.1,3641.2 c -355,67.5 -662.4,-174.9 -936.1,-204.9 -152.7,-16.7 -457.6,80 -762.3,170.5 -57.9,17.2 -105.3,-33.9 -53.8,-55.7 226.8,-95.9 556.6,-218.3 820,-208.5 441,16.5 693.8,395 1193.8,130.5 -58.1,83.4 -144.9,145.9 -261.6,168.1"
         style="fill:#ffd592;fill-opacity:1;fill-rule:nonzero;stroke:none"
         id="path82" /><path
         d="m 24284.2,3458.6 c 24.1,-397.8 -39.9,-511.4 -243.3,-660.1 -271.9,-170.7 -647.7,-86.3 -1016.5,-198.8 -9.6,-20.3 -13.6,-38.8 -10.7,-52.5 101.8,43.4 343,49.5 568.7,50.3 146.1,0.5 494.3,-21.5 681.8,259.3 122.3,183.2 128.4,431.9 20,601.8"
         style="fill:#ea840a;fill-opacity:1;fill-rule:nonzero;stroke:none"
         id="path84" /><path
         d="m 23793.4,3393.3 c -396.6,70.5 -790.9,-439 -1286.9,-786.1 -596.6,-417.5 -1213.7,-275.1 -1634.8,46 -362.7,276.6 -521.8,425.7 -1098.1,672.1 -446.9,191.1 -841,246.2 -1010.2,331.9 40.2,-205.5 743.1,-282.6 935.2,-410.5 405.9,-270.1 894.9,-661.6 1045.8,-789.7 451.8,-383.2 1163.1,-463.2 1648.2,-209.6 373.6,195.2 648.8,552.4 830.4,740.5 160.6,166.3 318.2,341.8 570.4,405.4"
         style="fill:#ea840a;fill-opacity:1;fill-rule:nonzero;stroke:none"
         id="path86" /><path
         d="m 19120.4,3822.7 -9.9,0.6 c -172.1,8.2 -306.2,-62.5 -326.1,-172.2 -8.2,-44.8 244.8,-126.8 395.9,-175.6 146.2,-47.4 311.9,-101 459.8,-167.4 356.2,-160.1 734.2,-482.9 1038,-742.2 l 92.1,-78.5 c 235.8,-200 550.2,-321.9 885.1,-343.2 260.9,-16.6 516.2,32.6 718.8,138.5 294.4,153.9 530.2,414.6 702.4,605 42.2,46.7 82,90.7 117.9,127.9 l 27.5,28.5 c 175.7,182.7 357.3,371.6 670.5,407.8 130.8,15.1 225.2,-34.2 261.5,-134.7 45,-124.7 -9.4,-312.2 -121.5,-417.9 -143.9,-135.9 -374.2,-196.7 -704.2,-185.8 -148.2,4.9 -225.6,-73.2 -245.7,-97.2 -2.9,-3.4 -5.5,-6.7 -7.8,-10 123,25.6 314.2,30.3 507.5,31.1 l 31.8,-0.1 c 158.6,-1 453.8,-2.8 617.1,241.6 97.4,145.9 118.3,340.4 53.2,495.6 -51.3,122.3 -150.2,203.1 -278.7,227.6 -25.4,4.8 -51.6,8.1 -77.7,9.7 -180.2,11.5 -348.4,-53.3 -511,-115.8 -116.7,-44.9 -226.9,-87.4 -335.6,-99.3 -22.9,-2.5 -48.3,-2.9 -78,-1 -153.7,9.8 -381.9,78 -623.5,150.1 -264.2,79 -538.1,160.4 -715.8,165 -252,10.9 -422.3,-73 -602.7,-161.9 -158.3,-78.1 -322,-158.8 -538.7,-164.6 -22.1,-0.6 -45,-0.1 -68.1,1.3 h -0.1 c -224.7,14.4 -468.9,123.2 -705.1,228.5 -227.1,101.2 -441.6,196.7 -628.9,208.6 z m 2529.8,-1758 c -351.9,22.4 -682.7,150.8 -931.5,361.9 l -92.3,78.7 c -300,256.1 -673.1,574.7 -1019,730 -143.9,64.7 -307.4,117.7 -451.5,164.3 -283.4,91.8 -470.5,152.3 -449.9,265.8 27.2,150 195.2,247.7 408.4,237.5 l 11.1,-0.7 c 201.6,-12.8 422.4,-111.2 656.2,-215.3 229.8,-102.4 467.4,-208.3 677.8,-221.7 h 0.1 c 20.7,-1.3 41.3,-1.8 60.9,-1.2 199.3,5.3 348,78.6 505.6,156.3 181.5,89.4 369,181.9 640.5,170.1 9.3,-0.2 19.6,-0.6 30.2,-1.3 186.9,-11.9 450.7,-90.7 705.9,-166.9 237.1,-70.9 461.1,-137.7 605.7,-146.9 24.6,-1.6 46.1,-1.4 64.2,0.5 98.3,10.9 204,51.5 315.7,94.5 162.7,62.6 347.1,133.6 544.7,121 29.4,-1.8 58.8,-5.5 87.5,-10.9 155.5,-29.6 275.3,-127.3 337.3,-275.1 75.1,-179.1 51.4,-403.1 -60.5,-570.6 -187.1,-280.2 -522.6,-278.1 -683.8,-277.2 l -30.9,0.1 c -220.9,-0.7 -459.2,-7 -553.3,-47.1 l -44.6,-19 -10,47.5 c -7.8,37 9.3,83.9 46.7,128.5 69.5,82.7 185.1,129.7 309.4,125.6 307.7,-10.1 519.3,43.5 646.9,164.1 88,82.9 135.3,238.6 101.2,332.9 -23.7,65.5 -84.7,93.5 -177.3,82.7 -284.9,-33 -448.7,-203.4 -622.3,-383.9 l -27.6,-28.7 c -35,-36.2 -74.4,-79.8 -116.1,-125.9 -176.2,-194.9 -417.5,-461.8 -724.5,-622.3 -218.6,-114.1 -481.7,-165.1 -760.9,-147.3"
         style="fill:#8c3200;fill-opacity:1;fill-rule:nonzero;stroke:none"
         id="path88" /><path
         d="m 21860.4,4038.8 c -4.9,-77.5 -87.9,-135.4 -185.4,-129.2 -97.4,6.2 -172.4,74.2 -167.5,151.7 5,77.5 87.9,135.3 185.4,129.1 97.4,-6.2 172.5,-74.1 167.5,-151.6"
         style="fill:#ffaf23;fill-opacity:1;fill-rule:nonzero;stroke:none"
         id="path90" /><path
         d="m 21859.1,4032 c 0.3,2.3 1.2,4.4 1.3,6.8 5,77.5 -70.1,145.4 -167.5,151.6 -97.5,6.2 -180.4,-51.6 -185.4,-129.1 -0.3,-5 0.6,-9.6 1,-14.4 111.6,94.1 246.4,98.6 350.6,-14.9"
         style="fill:#ffd592;fill-opacity:1;fill-rule:nonzero;stroke:none"
         id="path92" /><path
         d="m 21690.4,4150.7 c -75.4,4.8 -139.5,-36.5 -143.1,-92 -3.5,-55.5 54.9,-104.5 130.3,-109.3 75.4,-4.8 139.5,36.4 143,91.9 3.6,55.5 -54.8,104.6 -130.2,109.4 z m -17.9,-280.8 c -119.2,7.6 -211,94.5 -204.7,193.9 6.3,99.3 108.5,173.9 227.6,166.3 119.2,-7.5 211,-94.5 204.8,-193.8 -6.4,-99.4 -108.5,-174 -227.7,-166.4"
         style="fill:#8c3200;fill-opacity:1;fill-rule:nonzero;stroke:none"
         id="path94" /><path
         d="m 22408.5,3673.4 c 1,-100.4 -341.2,-192.2 -723.5,-196 -382.3,-3.8 -668.2,86.9 -669.2,187.3 -1,100.3 224.5,312.5 673.6,313.9 469.2,1.4 718.1,-204.8 719.1,-305.2"
         style="fill:#ffaf23;fill-opacity:1;fill-rule:nonzero;stroke:none"
         id="path96" /><path
         d="m 22373.8,3748.8 c -82.7,103.3 -314.9,231 -684.4,229.8 -342.3,-1.1 -554.3,-124.5 -635.5,-227.6 453.2,185.7 855.2,190 1319.9,-2.2"
         style="fill:#ffd592;fill-opacity:1;fill-rule:nonzero;stroke:none"
         id="path98" /><path
         d="m 22325.1,3797.6 c -103.2,-259 -1213.2,-230.4 -1241.3,-13.5 -45.5,-44.2 -68.3,-87.5 -68,-119.4 1,-100.4 286.9,-191.1 669.2,-187.2 382.3,3.7 724.5,95.5 723.5,195.9 -0.4,33.5 -28.9,78.8 -83.4,124.2"
         style="fill:#ea840a;fill-opacity:1;fill-rule:nonzero;stroke:none"
         id="path100" /><path
         d="m 21787.9,3935.8 c -32,2.1 -65.2,3 -98.4,3 -369.8,-1.2 -539.9,-144.5 -583.2,-188.3 -37.6,-38.2 -50.8,-69.8 -50.7,-85.4 0.5,-38.5 142.6,-122.9 469.7,-143.7 51.6,-3.3 105.2,-4.7 159.3,-4.2 179.4,1.8 360,23.9 495.4,60.4 157,42.4 188.7,86 188.7,95.4 -0.7,67.6 -199.1,238.6 -580.8,262.8 z m -267.7,-493.9 c -250.2,15.9 -542.8,83.7 -544.2,222.4 -0.4,43.2 25.7,93.6 73.6,142.1 48.8,49.5 239.1,210.8 639.7,212 35,0.2 69.9,-0.9 103.7,-3.1 420,-26.7 654.1,-218.9 655.3,-341.5 0.7,-70.3 -82.6,-128.6 -247.5,-173.1 -141.8,-38.3 -329.6,-61.3 -515.5,-63.1 -56,-0.6 -111.5,0.8 -165.1,4.3"
         style="fill:#8c3200;fill-opacity:1;fill-rule:nonzero;stroke:none"
         id="path102" /><path
         d="m 21724,1901.5 c 501.3,-16.3 785.5,-293.9 773.6,-482.7 -10.6,-165.7 -551.7,-203.7 -860.1,-184.8 -410.9,25.1 -725.4,165.9 -716.7,302.5 9.7,151.6 342,394.8 803.2,365"
         style="fill:#ffaf23;fill-opacity:1;fill-rule:nonzero;stroke:none"
         id="path104" /><path
         d="m 21107.4,1637.2 c 361,252.9 714.6,217.4 1183.9,90.8 -124.5,64.7 -372.4,167.1 -567.3,173.5 -461.2,29.8 -793.5,-213.4 -803.2,-365 -3.7,-58.1 51.5,-116.9 147.3,-167.3 -98,129.5 -53.7,193.9 39.3,268"
         style="fill:#ffd592;fill-opacity:1;fill-rule:nonzero;stroke:none"
         id="path106" /><path
         d="m 22062.8,1844 c 186,-130.4 241.3,-255.8 178.1,-373.9 -80.1,-177 -865.3,-189.5 -1265.2,-38.5 106.4,-96.9 357.5,-179 661.8,-197.6 308.4,-18.9 849.5,19.1 860.1,184.8 8.9,140.8 -147.1,330.8 -434.8,425.2"
         style="fill:#ea840a;fill-opacity:1;fill-rule:nonzero;stroke:none"
         id="path108" /><path
         d="m 21764.4,1859.6 c -13.7,0.9 -27.6,1.5 -41.7,2 -460.3,29.3 -754.8,-213.2 -762.2,-327.6 -5.6,-90.3 248.1,-232.8 674.5,-259.9 l 5,-0.3 c 364.7,-22.4 810.8,38.4 817.8,147.5 10.4,164 -248.3,410 -693.4,438.3 z m -134.5,-665 c -377.3,24 -760.6,159.4 -748.8,344.4 11.6,182.9 371.2,432.3 844.1,402.3 14.9,-0.6 29.7,-1.2 44.2,-2.2 470.2,-29.9 782.1,-299.6 767.9,-522.8 -14.4,-225.5 -672.6,-236.2 -902.2,-222.1 l -5.2,0.4"
         style="fill:#8c3200;fill-opacity:1;fill-rule:nonzero;stroke:none"
         id="path110" /><path
         d="m 10832.5,18773.6 3617.6,283.5 v -6842.3 l -3980.7,275.6 363.1,6283.2"
         style="fill:#00a7e8;fill-opacity:1;fill-rule:nonzero;stroke:none"
         id="path112" /><path
         d="m 11172.4,18800.3 c 504.1,-762.7 1221.1,-1537 2238.9,-1341.3 -29,-842.6 -148.9,-2929.8 -159.8,-3777.4 -59.9,-170.6 -1851.5,-112.3 -2723.4,-174 l -58.7,-1017.2 3980.7,-275.6 v 6842.3 l -3277.7,-256.8"
         style="fill:#007eb5;fill-opacity:1;fill-rule:nonzero;stroke:none"
         id="path114" /><path
         d="m 9539.56,13492.8 c -72.7,-624.6 -72.7,-2971 50.84,-3130.8 123.48,-159.8 435.8,-250.6 1351.1,-370.4 915.3,-119.9 2549.7,-32.7 3443.2,76.2 893.5,109 2201,539.3 2353.5,662 -43.5,231.5 -544.7,2846.6 -544.7,2846.6 C 15191,13423.8 10887,13304 9539.56,13492.8"
         style="fill:#f7dc01;fill-opacity:1;fill-rule:nonzero;stroke:none"
         id="path116" /><path
         d="m 16193.5,13576.4 c -470.3,-71.6 -1667.2,-135.9 -2944.5,-164.6 -3,-237.4 -72.5,-437.1 -324.4,-500.1 -435.8,-87.1 -968.6,-105.2 -1404.4,-18 479.5,-435.9 1273.6,-461.4 1883.9,-417.8 -212.5,-217.9 -1057,-65.4 -1707.3,-381.3 1320.4,0 1865.6,-185.3 1914.3,-741 64.5,-738.2 -1649.7,-383.9 -2390.7,-427.5 631,-351.6 1399.1,-411.5 2096.5,-324.4 -1050.8,-459.6 -2249.9,-523.4 -3429.66,-415.2 206.56,-67.6 532.26,-126.6 1054.26,-194.9 915.3,-119.9 2549.7,-32.7 3443.2,76.2 893.5,109 2201,539.3 2353.5,662 -43.5,231.5 -544.7,2846.6 -544.7,2846.6"
         style="fill:#efa614;fill-opacity:1;fill-rule:nonzero;stroke:none"
         id="path118" /><path
         d="m 12678.3,12659.5 c -40.1,0 -80.1,0.6 -119.9,1.6 -597.9,16.4 -1038.2,232.6 -1038.2,232.6 4.5,-1.4 454.4,-129.5 1040.6,-145.4 588,-16.1 1232.4,96.3 1238.8,97.4 l 15.2,-85.9 c -6.1,-1 -575.4,-100.3 -1136.5,-100.3"
         style="fill:#af3600;fill-opacity:1;fill-rule:nonzero;stroke:none"
         id="path120" /><path
         d="m 11696.8,12094.6 c 0,0 1249.4,184.2 2115.3,86.8 l -9.7,-86.6 c -857.5,96.5 -2093.3,0.8 -2105.6,-0.2"
         style="fill:#af3600;fill-opacity:1;fill-rule:nonzero;stroke:none"
         id="path122" /><path
         d="m 12457,10269.3 c -129.6,0 -261.5,1.7 -394.5,5.6 -1059.3,30.9 -1949.8,227.8 -1958.6,229.9 0,0 910.6,-112.2 1961.2,-142.8 1227.2,-35.9 2390.7,27.5 2390.7,27.5 -10.2,-1.4 -924.5,-120.2 -1998.8,-120.2"
         style="fill:#af3600;fill-opacity:1;fill-rule:nonzero;stroke:none"
         id="path124" /><path
         d="m 12687.1,10684.8 c -586.6,0 -1374.2,58.4 -1875.3,329 l 41.5,76.7 c 839,-453.2 2579.9,-287.3 2597.3,-285.6 0,0 -340.4,-120.1 -763.5,-120.1"
         style="fill:#af3600;fill-opacity:1;fill-rule:nonzero;stroke:none"
         id="path126" /><path
         d="m 9578.04,13443.7 c -73.02,-724.8 -57.19,-2918.7 46.84,-3055 116.16,-150.4 449.82,-239.6 1322.22,-353.9 290.7,-38.1 669.7,-57.4 1126.3,-57.4 892.9,0 1800.3,72 2306,133.6 866.8,105.8 2092.7,506.2 2310.8,638.5 -63.2,333 -469.9,2455 -531.7,2777.8 -683.9,-95.4 -2607.8,-174.9 -4260.8,-174.9 -742.6,0 -1738.6,16.1 -2319.66,91.3 z M 12073.4,9890.2 c -460.4,0 -843.1,19.6 -1137.5,58.2 -921.7,120.6 -1244.08,211.1 -1380.03,387 -141.15,182.7 -130.58,2552.2 -59.62,3162.5 l 5.14,44.3 44.19,-6.2 c 568.52,-79.7 1592.92,-96.4 2352.12,-96.4 1684.2,0 3648.4,82.3 4289.2,179.9 l 41.4,6.3 7.9,-41.2 c 5,-26.2 501.8,-2617.8 544.9,-2846.8 l 4.8,-25.7 -20.3,-16.3 c -171.3,-137.7 -1490.2,-563.3 -2375.6,-671.2 -508.2,-62 -1419.8,-134.4 -2316.6,-134.4"
         style="fill:#af3600;fill-opacity:1;fill-rule:nonzero;stroke:none"
         id="path128" /><path
         d="m 15866.5,18934.8 c 479.5,100.5 1925,-175.5 2607.9,-1403.1 501.2,-101.7 1382.4,-646.8 1888.6,-1416.5 428.6,-651.7 570.3,-1106 673.8,-1291.2 103.5,-185.2 296,-459.5 237.9,-608.4 -58.1,-148.9 -475.8,-526.6 -657.4,-533.9 -181.6,-7.3 -1765.2,646.5 -1765.2,646.5 -595.6,7.3 -1133.2,167.1 -1648.9,1002.5 -348.7,-50.9 -951.6,-131.8 -1336.7,271.8 -384.9,403.7 -561.1,1478.8 -538.4,1958.3 22.7,479.4 458.5,1324.2 538.4,1374"
         style="fill:#00a7e8;fill-opacity:1;fill-rule:nonzero;stroke:none"
         id="path130" /><path
         d="m 18634.2,16616.4 c 87.1,217.9 130.7,479.4 43.6,697.3 690.8,-394.7 1257.5,-938.4 1850,-1462.5 -49.8,84.1 -104.2,171.8 -164.8,264 -506.2,769.7 -1387.4,1314.8 -1888.6,1416.5 -677.2,1217.4 -2103.8,1498.8 -2595.1,1405.3 1214.1,-282.9 2518.5,-981.3 2754.9,-2320.6"
         style="fill:#71deff;fill-opacity:1;fill-rule:nonzero;stroke:none"
         id="path132" /><path
         d="m 21036.8,14824 c -79.3,141.9 -181.6,442.3 -417.6,867.9 156.1,-502.1 287.8,-1007.2 107,-1429.1 -86.5,-191.5 -187.4,-369.4 -299.9,-536.5 92.6,-28.8 161.1,-45.8 191,-44.6 181.6,7.3 599.3,385 657.4,533.9 58.1,148.9 -134.4,423.2 -237.9,608.4"
         style="fill:#007eb5;fill-opacity:1;fill-rule:nonzero;stroke:none"
         id="path134" /><path
         d="m 18786.7,14812.7 c -537.5,-157.6 -824.1,96.2 -980.6,539.7 -43.6,130.8 348.7,435.9 392.2,741 -896.9,-741 -2002.9,-365 -2725.4,346.7 89.5,-338.1 220.4,-655.9 393.6,-837.6 385.1,-403.6 988,-322.7 1336.7,-271.8 511.9,-829.2 1045.3,-992.7 1635.7,-1002.2 370.6,240 815.8,333.8 1249.8,420.6 -504.7,272.8 -1011.1,148.8 -1302,63.6"
         style="fill:#007eb5;fill-opacity:1;fill-rule:nonzero;stroke:none"
         id="path136" /><path
         d="m 17082.3,15269.9 -12.2,86.3 c 414.8,59 768.2,291.7 771.7,294.1 0,0 -324.5,-318.5 -759.5,-380.4"
         style="fill:#1c2649;fill-opacity:1;fill-rule:nonzero;stroke:none"
         id="path138" /><path
         d="m 18642.8,16888.9 c -1.3,5.2 -134.1,520.2 -247.5,692.7 l 72.8,48 c 121.5,-184.7 174.7,-740.7 174.7,-740.7"
         style="fill:#1c2649;fill-opacity:1;fill-rule:nonzero;stroke:none"
         id="path140" /><path
         d="m 19410.6,15222.7 c -1.3,3.5 -135.2,350 -493.9,503.8 -360.4,154.4 -684.9,48.9 -688.1,47.7 0,0 330.2,200.5 722.4,32.4 394,-168.9 459.6,-583.9 459.6,-583.9"
         style="fill:#1c2649;fill-opacity:1;fill-rule:nonzero;stroke:none"
         id="path142" /><path
         d="m 17225.2,15377.9 15,-24.3 c 496.7,-804.6 1003.8,-974.4 1612.4,-981.8 l 8.4,-0.1 7.7,-3.2 c 626.4,-258.6 1608.1,-643.3 1745.4,-643.3 v -43.6 l 1.4,43.7 c 162.6,6.5 567.1,374.4 618.6,506.2 40.5,103.7 -84.5,314.7 -175.8,468.8 -21.3,36 -41.8,70.5 -59.6,102.4 -30.4,54.5 -63.3,129.6 -104.9,224.8 -104.4,239 -262.2,600 -567.2,1063.7 -478.2,727.1 -1338.3,1291.7 -1860.9,1397.8 l -19.7,4 -9.7,17.5 c -571.2,1026.9 -1720.7,1399.6 -2354,1399.6 -75.7,0 -141.9,-5.3 -196.9,-16 -87.3,-83 -492.1,-878.4 -513.8,-1335.5 -21,-444.2 145.7,-1526.7 526.5,-1926 193.2,-202.6 463.4,-301.1 825.9,-301.1 182.8,0 357.4,25.4 472.9,42.3 z m 3389,-1739.8 c -195.9,0 -1577.2,566.7 -1771,646.6 -544,7.9 -1121,137.3 -1662,998.7 -141.9,-20.3 -293.6,-39.1 -457.2,-39.1 -387.6,0 -678.4,107.3 -889,328.2 -403.2,422.8 -572.6,1520.5 -550.5,1990.3 22.2,468.1 453.5,1343.3 559,1409 l 6.6,4 7.5,1.6 c 62.9,13.2 138.5,19.9 224.7,19.9 650.4,0 1827.7,-380.5 2420.4,-1427.1 541.4,-119.4 1412.1,-694.2 1896.8,-1431.1 309,-469.9 468.6,-835 574.2,-1076.7 40.7,-93 72.8,-166.4 101.1,-217.2 17.5,-31.2 37.6,-65.1 58.6,-100.5 111.4,-188.3 237.8,-401.6 181.9,-545 -64.7,-165.7 -493.3,-553.4 -696.3,-561.5 l -4.8,-0.1"
         style="fill:#1c2649;fill-opacity:1;fill-rule:nonzero;stroke:none"
         id="path144" /><path
         d="m 9623.09,18839.2 c 392.21,152.6 1263.91,316 1906.81,337.8 642.8,21.8 3777.6,54.5 4454.9,-168.9 -183.6,-190.7 -532.3,-1356.5 -401.5,-2195.6 130.7,-839 207,-1056.9 915.2,-1983 54.5,-435.9 316,-2375.4 610.2,-3083.7 -174.3,-446.7 -1536.3,-904.4 -3072.7,-806.3 -174.3,512.1 -250.6,2713.1 -250.6,3443.2 0,730 119.8,3573.9 392.2,4412.9 -239.7,130.8 -2386.2,-217.9 -2386.2,-217.9 29.1,-987.9 -232.4,-3675.6 -348.7,-4721.6 -116.2,-1046.1 -501.2,-2622.4 -566.6,-2698.7 -65.3,-76.2 -1808.73,-21.7 -2713.12,490.3 174.34,501.3 673.36,2226.9 785.94,3336.5 170.7,303.3 547.06,1072.9 656.01,1559.5 108.95,486.8 181.59,1532.8 18.16,2295.5"
         style="fill:#87001d;fill-opacity:1;fill-rule:nonzero;stroke:none"
         id="path146" /><path
         d="m 13202.2,19191.1 c -746.5,5.3 -1412.6,-5.3 -1672.3,-14.1 -642.9,-21.8 -1514.6,-185.2 -1906.81,-337.8 10.08,-47.1 19.24,-95.4 27.59,-144.5 1175.62,277.7 2314.92,324.9 3535.42,493.2 5.2,1.3 10.8,2.2 16.1,3.2"
         style="fill:#cc4669;fill-opacity:1;fill-rule:nonzero;stroke:none"
         id="path148" /><path
         d="m 8237.57,11875 c -28.57,-90.8 -53.94,-167.8 -74.59,-227.3 904.39,-512 2647.82,-566.5 2713.12,-490.3 65.4,76.3 450.4,1652.6 566.6,2698.7 89.6,806.1 265.4,2587.1 328.1,3813.9 -407.8,-2013 -756.8,-3991.4 -1417.7,-5935.1 -705.18,-67.1 -1410.36,72.4 -2115.53,140.1"
         style="fill:#600019;fill-opacity:1;fill-rule:nonzero;stroke:none"
         id="path150" /><path
         d="m 9657.08,18654.9 c 117.68,-739.1 48.24,-1662.6 -52.15,-2111.2 -108.95,-486.6 -485.31,-1256.2 -656.01,-1559.5 -33.12,-326.5 -99.79,-706.4 -181.75,-1092.7 579.3,698.7 983.79,1507.2 1237.23,2376.2 199.1,756.5 215.9,1839.9 -347.32,2387.2"
         style="fill:#600019;fill-opacity:1;fill-rule:nonzero;stroke:none"
         id="path152" /><path
         d="m 16498.5,14829.5 c -708.2,926.1 -784.5,1144 -915.2,1983 -130.8,839.1 217.9,2004.9 401.5,2195.6 -154.8,51.1 -438.3,88.7 -790.8,116.2 -307.1,-1556.1 -669.5,-4418.3 768.8,-4469.2 -43.6,-740.9 348.7,-2032.1 0,-2642.3 -439.2,-743.3 -1075.7,-682.9 -1950.2,-990.9 7.6,-30.5 15.4,-58.8 23.4,-82.4 1536.4,-98.1 2898.4,359.6 3072.7,806.3 -294.2,708.3 -555.7,2647.8 -610.2,3083.7"
         style="fill:#600019;fill-opacity:1;fill-rule:nonzero;stroke:none"
         id="path154" /><path
         d="m 14068.5,10981.2 c 128.8,-7.6 259.6,-11.5 389,-11.5 1337.6,0 2433.7,406 2604,776.4 -307,760 -568.9,2781.3 -604.8,3066.2 -704.6,922.3 -784.9,1148.8 -916.5,1993.5 -125.2,803.3 180,1877.2 371.9,2178.1 -573.8,148.5 -2353.3,165.1 -3112.5,165.1 -556.9,0 -1047.8,-8.1 -1268.2,-15.6 -585.5,-19.8 -1438.1,-168.4 -1858.06,-321.8 156.6,-774.6 78.38,-1811.6 -25.86,-2277.4 -110.8,-494.8 -486.67,-1260.7 -656.11,-1563.4 -109.72,-1064.6 -581.26,-2732.2 -775.26,-3302.7 668.25,-362.8 1787.09,-495 2385.19,-495 153.9,0 223.9,10.2 244.1,16.7 68.2,125 440.6,1650.2 554,2671 99.9,899.4 378.4,3696.1 348.4,4715.6 l -1.1,38.2 37.7,6.1 c 15.3,2.5 1532.9,247.9 2153,247.9 177.1,0 233.8,-19.8 261.1,-34.7 l 31.8,-17.3 -11.2,-34.4 c -268.5,-827.1 -390.1,-3654.7 -390.1,-4399.5 0,-730.7 73.7,-2849.2 239.5,-3401.5 z m 389,-98.7 c -141.3,0 -284,4.6 -424.3,13.5 l -29.1,1.9 -9.4,27.5 c -175.1,514.6 -252.9,2709.8 -252.9,3457.3 0,736.3 119.1,3501.6 381.7,4385.6 -31.7,6.8 -87.5,13.1 -186.1,13.1 -558.8,0 -1863.3,-202.9 -2101.5,-240.7 22.4,-1054.3 -251,-3799.5 -349.8,-4689.5 -110.4,-992.7 -494.7,-2626.3 -576.9,-2722.1 -12.9,-15.1 -36.9,-43.1 -307.9,-43.1 -616.87,0 -1781,139.5 -2459.78,523.9 l -31.61,17.9 11.93,34.3 c 185.39,533 674.22,2247.2 783.72,3326.5 l 0.93,9.1 4.43,7.9 c 165.23,293.4 541.79,1057.9 651.46,1547.7 104.24,465.7 182.07,1511.3 18.05,2276.8 l -7.75,36.3 34.58,13.4 c 420.84,163.7 1300.64,319.7 1921.24,340.8 221.1,7.5 713.2,15.5 1271.1,15.5 983.3,0 2706.5,-24.2 3198.8,-186.6 l 65.8,-21.7 -48.1,-49.9 c -171.2,-177.9 -518.2,-1334.9 -389.7,-2158.7 131.1,-841.3 203.3,-1043.5 906.7,-1963.3 l 7.2,-9.4 1.5,-11.7 c 11.7,-94 291.6,-2312.5 607.2,-3072.2 l 6.7,-16.2 -6.4,-16.4 c -179.2,-459.4 -1411.9,-847.4 -2691.8,-847.5"
         style="fill:#33000d;fill-opacity:1;fill-rule:nonzero;stroke:none"
         id="path156" /><path
         d="m 15839.3,19057.1 c -201.6,-288.7 -494.7,-1151.6 -408.6,-2190.1 87.2,-1051.5 610.2,-1877.7 1067.8,-2037.5 0,92.5 27.3,288.7 0,321.4 -190.7,98.1 -740.9,757.3 -817.2,1716.1 -76.2,958.9 265.1,1856 446.8,2110.2 -50.9,65.4 -288.8,79.9 -288.8,79.9"
         style="fill:#ffaf23;fill-opacity:1;fill-rule:nonzero;stroke:none"
         id="path158" /><path
         d="m 15861.3,19011.8 c -212.7,-325.2 -466.6,-1183.4 -387.2,-2141.2 82.7,-997.2 563,-1780 983.3,-1977.2 0.9,16 2.1,32.8 3.3,50 3.8,55.5 10,145.3 3.8,176.5 -218.1,129.1 -751.4,798.6 -826.6,1743.7 -73,917.9 233.1,1793.3 431.1,2103.9 -43.3,20.4 -129,37.4 -207.7,44.3 z m 689,-4243.8 -66.1,20.3 c -468.2,163.5 -1006.5,984.4 -1096.9,2075.1 -87.6,1056.4 208.9,1921.6 416.3,2218.7 l 13.9,20 24.4,-1.4 c 60.5,-3.7 262.2,-21.6 320.6,-96.7 l 19.9,-25.7 -18.9,-26.4 c -189.6,-265.4 -513,-1148.5 -438.7,-2081.5 73.1,-918.9 604.2,-1583.3 793.6,-1680.8 l 7.9,-4 5.7,-6.8 c 27,-32.4 25.5,-98.4 15.6,-241.4 -2.8,-41.2 -5.5,-80.1 -5.5,-107.9 l 8.2,-61.5"
         style="fill:#af3600;fill-opacity:1;fill-rule:nonzero;stroke:none"
         id="path160" /><path
         d="m 9416.02,18833.8 c 141.69,-375.9 225.71,-1306.1 101.74,-2028.5 -137.14,-799.1 -472.19,-1485.5 -557.07,-1692.2 0,-70.9 -69.66,-583.9 -69.66,-583.9 185.28,92.6 797.43,1455.2 917.28,2207.1 119.85,751.8 59.9,1694.3 -130.74,2157.4 -76.27,10.9 -272.12,-30.6 -261.55,-59.9"
         style="fill:#ffaf23;fill-opacity:1;fill-rule:nonzero;stroke:none"
         id="path162" /><path
         d="m 9544.06,18884.7 c -69.82,-12.6 -134.22,-33.8 -128.04,-50.9 141.69,-375.9 225.71,-1306.1 101.74,-2028.5 -137.14,-799.1 -472.19,-1485.5 -557.07,-1692.2 0,-24.4 -8.25,-101 -19.03,-191.1 764.26,1160.4 1009.49,2838.5 602.4,3962.7"
         style="fill:#ffe0b3;fill-opacity:1;fill-rule:nonzero;stroke:none"
         id="path164" /><path
         d="m 9004.06,15103.8 c -2.94,-66.2 -32.1,-295.4 -51.94,-446.6 223.23,322.7 706.36,1416.1 813.15,2085.9 115.36,723.8 63.21,1640.7 -117.95,2108.8 -59.46,-0.2 -142.13,-17.3 -180.18,-31.3 141.42,-407.9 214.11,-1320.3 93.56,-2022.7 -118.88,-692.7 -383.79,-1297.9 -511.11,-1588.7 -18.55,-42.3 -34.04,-77.7 -45.53,-105.4 z m -167.29,-650.5 11.11,81.8 c 19.24,141.9 69.22,522.3 69.22,578 v 8.5 l 3.26,8 c 11.97,29.1 28.84,67.6 49.38,114.6 125.93,287.6 387.96,886.2 505.04,1568.5 121.05,705.1 44.67,1623 -99.53,2005.7 -5.9,16.3 -3.46,33.7 6.62,48 35.29,50.3 206.85,72.7 266.1,72.7 13.39,0 25.47,-0.8 35.77,-2.3 l 24.62,-3.5 9.48,-23 c 194.55,-472.4 253.14,-1430.4 133.52,-2180.9 -117.14,-734.7 -733.42,-2135.5 -940.81,-2239.2 l -73.78,-36.9"
         style="fill:#af3600;fill-opacity:1;fill-rule:nonzero;stroke:none"
         id="path166" /><path
         d="m 13919.8,18861 c -109,-675.6 -308.7,-2691.3 -352.3,-4031.5 -43.6,-1340.3 207,-3791.9 326.8,-3993.5 119.9,-201.6 1460.2,-114.4 2478.9,245.2 -5.4,59.9 -103.5,267 -103.5,267 -435.8,-136.3 -1931.5,-365 -2088.4,-194.4 -157,170.7 -314.2,2874.1 -292.4,3649.1 21.8,775 113.5,3059.9 430.4,3981.8 -32.7,141.7 -399.5,76.3 -399.5,76.3"
         style="fill:#ffaf23;fill-opacity:1;fill-rule:nonzero;stroke:none"
         id="path168" /><path
         d="m 14004.1,10897.9 c -132.7,781.1 -333.3,2602.1 -284.1,3980.4 47.8,1341.4 127.1,2776.5 401.8,3997.1 -100.8,3.5 -202,-14.4 -202,-14.4 -109,-675.6 -308.7,-2691.3 -352.3,-4031.5 -43.6,-1340.3 207,-3791.9 326.8,-3993.5 49.1,-82.4 302.2,-116.5 653.8,-103.5 -217.9,76.3 -522.2,121.8 -544,165.4"
         style="fill:#ffe0b3;fill-opacity:1;fill-rule:nonzero;stroke:none"
         id="path170" /><path
         d="m 13957.8,18822.6 c -109.8,-704.2 -304.5,-2695.8 -346.8,-3994.6 -44.5,-1371.3 209.6,-3782.6 320.8,-3969.7 23.3,-39.2 162.2,-85 476.9,-85 470,0 1239,104.1 1913.2,336.2 -14.7,46.4 -47.2,123.3 -75.8,186.1 -352.8,-101.4 -1226.1,-246.2 -1727.3,-246.2 -269.6,0 -340,42.8 -369.6,74.9 -175.8,191.1 -324.9,2929.8 -303.9,3679.8 19.6,695.4 108.1,3028.6 427.8,3980.3 -17.1,30.3 -81.8,48.1 -177.3,48.1 -54.4,0 -106.5,-5.6 -138,-9.9 z m 450.9,-8136.4 c -315.8,0 -501.5,42.9 -551.8,127.5 -130.9,220.2 -376.5,2678.9 -332.9,4017.2 43.6,1343.9 241,3344.3 352.7,4037 l 5,30.6 30.4,5.4 c 3.6,0.6 89.4,15.8 183.7,15.8 157.3,0 246.8,-42.1 266,-125.1 l 2.8,-12.2 -4.1,-11.9 c -319.8,-930.4 -408.5,-3273 -428,-3968.8 -23.7,-843.5 143.9,-3469.5 280.8,-3618.4 10.1,-10.9 62,-46.7 305.5,-46.7 512.2,0 1418,153.2 1737.9,253.1 l 36.2,11.4 16.2,-34.4 c 16.9,-35.6 101.7,-217.2 107.5,-281.6 l 3.1,-33.8 -32,-11.3 c -692.6,-244.4 -1493,-353.8 -1979,-353.8"
         style="fill:#af3600;fill-opacity:1;fill-rule:nonzero;stroke:none"
         id="path172" /><path
         d="m 8228.9,11848.5 c -23.04,-72.2 -142.19,-364.2 -124.03,-375.1 18.16,-10.9 695.53,-332.3 1474.64,-452.2 779.09,-119.8 1394.69,-157.9 1454.59,-65.3 59.9,92.6 517.6,2435.2 670.1,3786.4 152.6,1351.1 254.5,3657.7 250.6,3759.2 -3.9,101.3 -315.9,65.3 -315.9,65.3 0,-479.4 -141.7,-2807.6 -261.5,-3828.2 -119.9,-1020.5 -534.4,-3293.1 -610.2,-3450.4 -75.8,-157.3 -1807.17,56 -2538.3,560.3"
         style="fill:#ffaf23;fill-opacity:1;fill-rule:nonzero;stroke:none"
         id="path174" /><path
         d="m 10852.9,11206.2 c 268.8,595.6 367.5,1520.3 681.9,3532.4 139,1333.7 256.6,3090.9 221.1,3790.8 -86.5,7.7 -117,37.4 -117,37.4 0,-479.4 -141.7,-2807.6 -261.5,-3828.2 -119.9,-1020.5 -534.4,-3293.1 -610.2,-3450.4 -8.8,-18.1 -40.2,-31.1 -88.7,-39.5 66.9,-68.1 158.1,-69.5 174.4,-42.5"
         style="fill:#ffe0b3;fill-opacity:1;fill-rule:nonzero;stroke:none"
         id="path176" /><path
         d="m 8150.85,11499.7 c 125.59,-58 736.71,-327.9 1435.27,-435.4 488.38,-75.1 899.78,-116.5 1158.58,-116.5 220.8,0 252.1,31.2 253.4,32.5 60.6,116 513.4,2443.1 662.8,3766.9 155.8,1379.7 253.6,3669.2 250.4,3752.6 -0.2,0.8 -19.5,29.6 -155.4,29.6 -27.7,0 -53.8,-1.2 -73.7,-2.6 -7,-545.6 -142.7,-2780.9 -261.6,-3793.2 -116.9,-995.4 -534.5,-3298.9 -614.2,-3464.3 -16.9,-35.2 -65.8,-75.5 -295.9,-75.5 -492.7,0 -1647.6,196.3 -2259.22,587.5 -6.45,-17.7 -13.98,-37.6 -21.9,-58.8 -23.95,-63.7 -65.21,-173.6 -78.53,-222.8 z m 2593.85,-639 c -263.1,0 -679.3,41.7 -1171.81,117.5 -796.78,122.6 -1485.31,454.8 -1490.4,457.9 -40.6,24.3 -35.72,48 65.26,317 17.73,47.2 33.01,88.1 39.62,108.7 l 17.84,56 48.41,-33.4 c 574.42,-396.2 1774.58,-603.5 2256.88,-603.5 188,0 218.9,28.7 218.9,28.7 68.8,143.4 479.9,2372 604.7,3434.1 121.7,1037 261.2,3359.2 261.2,3823.1 v 38.8 l 38.6,4.5 c 2.3,0.3 57.1,6.5 122,6.5 158.1,0 239.6,-38.2 242.5,-113.5 4.6,-119.8 -99.9,-2428.7 -250.8,-3765.7 -148.1,-1311.8 -607.1,-3697.3 -676.9,-3805.2 -22.9,-35.4 -79.5,-71.5 -326,-71.5"
         style="fill:#af3600;fill-opacity:1;fill-rule:nonzero;stroke:none"
         id="path178" /><path
         d="m 21241.6,14283.2 c 4.1,-114.5 -94,-448.9 -333.7,-754.1 -239.8,-305 -595.7,-871.6 -1481.9,-1322 -886.3,-450.4 -1451,-668.3 -1837.9,-1022.4 -386.8,-354.2 -599.3,-533.9 -828.1,-621.1 -228.8,-87.1 -427.7,-98 -531.1,-79 -103.6,19.1 -332.4,163.5 -310.6,471.3 -133.4,125.3 -247.9,296.9 -138.9,566.6 -160.7,133.4 -221.6,415.8 -61.8,528.4 -32.7,141.7 181.6,316 381.4,366.9 199.8,50.8 415.9,58.1 622.9,41.7 207,-16.3 488.5,-70.8 873.5,452.2 385,523 658.1,1078.3 1060.6,1454.7 670.1,626.5 1432.7,382.7 1432.7,382.7 l 1152.9,-465.9"
         style="fill:#00a7e8;fill-opacity:1;fill-rule:nonzero;stroke:none"
         id="path180" /><path
         d="m 15831.1,12236.7 c 174.4,48.5 376,111.1 634.7,103 258.8,-8.2 391.6,-47.8 552.5,4.7 -40.4,-89.2 -111.2,-304.4 -100.3,-375.1 106.3,98 712.7,657.6 1166.8,1366.7 565.7,883.3 1094,1359.5 2003.9,1413.1 -337.7,85.8 -678.2,47.7 -1086.8,-137.6 -408.6,-185.2 -796.3,-817.2 -1003.4,-1122.3 -207,-305.1 -488.6,-850.7 -868.9,-991.3 -246.1,-91 -718.2,-22 -874.4,-51.1 -156.2,-29 -328.7,-115.2 -424.1,-210.1"
         style="fill:#71deff;fill-opacity:1;fill-rule:nonzero;stroke:none"
         id="path182" /><path
         d="m 16280.6,11037.6 c -190.6,-31.8 -403.8,6.4 -522.6,147.2 31.7,-92.1 93.6,-166.3 160.3,-228.9 -0.7,-10.7 -0.7,-20.9 -0.9,-31.1 129.8,-3.5 246.5,25.3 363.2,112.8"
         style="fill:#007eb5;fill-opacity:1;fill-rule:nonzero;stroke:none"
         id="path184" /><path
         d="m 16149.9,11517 c -235.2,39.2 -399.5,149.5 -525.4,329.7 1.2,-116.5 60.6,-245.9 154.9,-324.2 -3.1,-7.6 -5.3,-14.9 -8,-22.3 113.4,-33.3 265.8,-37.7 378.5,16.8"
         style="fill:#007eb5;fill-opacity:1;fill-rule:nonzero;stroke:none"
         id="path186" /><path
         d="m 15789.5,12236.7 c -45,-49.1 -73.4,-102.1 -74.7,-152.7 186.6,1.4 267.1,26 441.1,13.2 -138.2,96.7 -216.4,93.8 -366.4,139.5"
         style="fill:#007eb5;fill-opacity:1;fill-rule:nonzero;stroke:none"
         id="path188" /><path
         d="m 20798.5,14519.1 c -14.1,-69.6 -44,-190.4 -72.3,-256.3 -320.1,-708.8 -844.9,-1189.4 -1450.6,-1603.3 -548.6,-375 -1163.6,-695.4 -1752.8,-1081.4 -309.5,-202.7 -370.5,-496.9 -632,-671.2 -303.9,-182.4 -610.2,-337.9 -892.5,-258.6 70.9,-100.4 171.2,-152.8 230.6,-163.7 103.4,-19 302.3,-8.1 531.1,79 228.8,87.2 441.3,266.9 828.1,621.1 386.9,354.1 951.6,572 1837.9,1022.4 886.2,450.4 1242.1,1017 1481.9,1322 239.7,305.2 337.8,639.6 333.7,754.1 l -443.1,235.9"
         style="fill:#007eb5;fill-opacity:1;fill-rule:nonzero;stroke:none"
         id="path190" /><path
         d="m 15709,11983.8 -73.7,46.5 c 90.7,143.6 520.6,66.9 520.6,66.9 -146.5,-2.2 -397.4,-35 -446.9,-113.4"
         style="fill:#1c2649;fill-opacity:1;fill-rule:nonzero;stroke:none"
         id="path192" /><path
         d="m 15720.7,11517.3 62.5,60.8 c 68.8,-70.6 212,-75.6 213.5,-75.6 0,0 -182.3,-81.4 -276,14.8"
         style="fill:#1c2649;fill-opacity:1;fill-rule:nonzero;stroke:none"
         id="path194" /><path
         d="m 15868.9,10943.1 57.3,65.7 c 71,-62 196.6,-27.8 197.9,-27.5 0,0 -127.4,-107.1 -255.2,-38.2"
         style="fill:#1c2649;fill-opacity:1;fill-rule:nonzero;stroke:none"
         id="path196" /><path
         d="m 17011.7,12182.2 c 0,0 84,284.3 344.7,520.8 l 58.6,-64.5 c -252.1,-228.7 -401.9,-454.1 -403.3,-456.3"
         style="fill:#1c2649;fill-opacity:1;fill-rule:nonzero;stroke:none"
         id="path198" /><path
         d="m 16331,10432.9 c -42.8,0 -79.8,3.3 -110.1,8.9 -115.8,21.3 -359.3,175.6 -347.2,496.4 -116.5,113.5 -245.6,292.3 -145.7,571.8 -93.9,90.8 -152.2,229.7 -147.2,355.2 3.3,84.2 35.1,155.7 90.2,204.4 -10,162 202.6,335.7 417.2,390.4 185.8,47.2 400,61.6 637.1,43 l 32.8,-2.8 c 201.2,-17.4 451.5,-39.1 802.2,437.3 134.5,182.7 255.9,370.4 373.4,551.9 219.8,339.9 427.5,661 692.5,908.8 679.8,635.6 1462.5,350.9 1462.5,350.9 -7.5,2 -759.3,187.3 -1403,-414.6 -257.1,-240.5 -462,-557.1 -678.9,-892.4 -118.1,-182.6 -240.2,-371.4 -376.3,-556.2 -379.7,-515.9 -668.7,-491 -880,-472.5 l -32,2.7 c -227.5,18 -432.4,4.3 -608.8,-40.6 -193.8,-49.3 -373.5,-211.2 -349.6,-314.8 l 6.6,-28.6 -24,-16.8 c -58.5,-41.2 -73,-106.2 -74.9,-153.5 -4.3,-108.3 53,-234 139.4,-305.8 l 24.5,-20.3 -11.9,-29.6 c -103.3,-255.7 14.3,-411.4 128.3,-518.4 l 15.1,-14.3 -1.4,-20.6 c -19.6,-276.8 180.6,-408 275,-425.3 94.9,-17.6 285.2,-8 507.7,76.8 214.1,81.6 415.4,247.4 814.2,612.5 293,268.3 686.6,459.7 1231.4,724.6 183.1,89.1 390.8,190 616.1,304.6 774.4,393.5 1137.6,874.7 1378,1193.2 31.8,42.1 61.4,81.3 89.4,116.9 233.4,297.1 371.6,623.7 368,727.1 l 87.1,3.1 c 4.8,-135 -149.4,-482.2 -386.6,-784 -27.6,-35.3 -56.9,-74 -88.3,-115.7 -245.2,-324.8 -615.8,-815.7 -1408.1,-1218.4 -226.1,-114.8 -434,-216 -617.6,-305.2 -538.1,-261.7 -926.9,-450.8 -1210.5,-710.4 -407.6,-373.1 -614.6,-543.1 -842,-629.7 -174.2,-66.4 -329.9,-90 -444.6,-90"
         style="fill:#1c2649;fill-opacity:1;fill-rule:nonzero;stroke:none"
         id="path200" /><path
         d="m 11613.9,23113.8 c 52.4,387.1 -16.8,960 -561.1,1225.8 30.5,-304.2 -13.1,-840.1 -318.4,-1347.8 -305.5,-507.6 -809.54,-1315.2 -212.7,-1623.6 334.2,76.1 1028.4,1412.5 1092.2,1745.6"
         style="fill:#00a7e8;fill-opacity:1;fill-rule:nonzero;stroke:none"
         id="path202" /><path
         d="m 10805.6,23038.8 c 200.7,207.8 326.2,494.1 371.3,1039.6 143.5,-47.1 338,-456.6 389.5,-783 50.7,74.4 58.3,160.5 58.3,160.5 -35.3,270.6 -132.7,708.2 -570.4,866 39.6,-229.1 37.4,-680.8 -248.7,-1283.1"
         style="fill:#71deff;fill-opacity:1;fill-rule:nonzero;stroke:none"
         id="path204" /><path
         d="m 10552.3,22673.1 c -409.9,-689.8 -407.4,-1110.3 -30.6,-1304.9 219.8,50.1 595.4,645.3 844.8,1141.7 -551.5,-615.8 -1047.1,-497.4 -814.2,163.2"
         style="fill:#007eb5;fill-opacity:1;fill-rule:nonzero;stroke:none"
         id="path206" /><path
         d="m 11238.6,22458.3 -72.4,24 c 189.7,572 2.2,1225.4 0.3,1232 0,0 269.2,-661.7 72.1,-1256"
         style="fill:#1c2649;fill-opacity:1;fill-rule:nonzero;stroke:none"
         id="path208" /><path
         d="m 11203.5,22481 -75.3,12.1 c 45.2,283.2 -148.8,572.9 -150.7,575.9 0,0 276,-275.2 226,-588"
         style="fill:#1c2649;fill-opacity:1;fill-rule:nonzero;stroke:none"
         id="path210" /><path
         d="m 11096.1,24273.6 c 12.5,-228 -2.4,-758.5 -329.1,-1301.4 l -20.3,-33.8 c -230.6,-382.8 -546.4,-907 -446.1,-1261.6 32.7,-115.2 106.5,-203 225.5,-267.9 307.9,101.1 982.5,1357.7 1050.4,1712.1 26.2,194.1 66.6,840.4 -480.4,1152.6 z m -579.6,-2945.7 -12.4,6.4 c -144.3,74.7 -237.5,183 -276.9,321.8 -109.3,386.3 216.4,926.9 454.2,1321.6 l 20.2,33.9 c 281.9,468.3 346.6,991.1 313.2,1324.2 l -6.8,68.1 61.6,-30.1 c 655.8,-320.2 611.4,-1049.2 582.1,-1265 -59.8,-312.5 -751.1,-1693.4 -1121.6,-1777.8 l -13.6,-3.1"
         style="fill:#1c2649;fill-opacity:1;fill-rule:nonzero;stroke:none"
         id="path212" /><path
         d="m 14871.2,25269.8 c -232.5,349.1 -395.3,1087.2 245.9,1798.3 641.3,711 1728.6,994.3 2701.7,387.4 846.8,-528 950.1,-1580.2 952,-1980.8 2.8,-585.2 295,-1083.1 935.9,-702.8 -42.3,-396 -544.6,-573.8 -961.3,-530.6 -668.5,69.4 -652.7,824.5 -1369,589.6 -415.6,-282.8 -1534.7,-608.2 -1960.6,134.7 -151.6,131.3 -544.6,304.2 -544.6,304.2"
         style="fill:#112847;fill-opacity:1;fill-rule:nonzero;stroke:none"
         id="path214" /><path
         d="m 17694.6,25701.3 c -392.1,-0.4 -1193.9,7.7 -1785.3,-505.8 241.1,-196.1 1198.4,-279.5 2043.5,338.9 -432.8,-164 -1339.2,-462 -1812.8,-320.6 122,223.7 882.7,362.2 1554.6,487.5"
         style="fill:#1e5384;fill-opacity:1;fill-rule:nonzero;stroke:none"
         id="path216" /><path
         d="m 18081.3,26221.9 c -504.7,225.6 -1668.3,722.7 -2297.4,-312.3 420.3,200.7 1377.6,242.5 2059.4,-126.4 -319.3,307.7 -955.1,492.6 -1706.6,346.4 378.3,314.7 815.3,410 1944.6,92.3"
         style="fill:#1e5384;fill-opacity:1;fill-rule:nonzero;stroke:none"
         id="path218" /><path
         d="m 16901.6,27638.1 c 751.5,-88.3 1160.1,-365 1605.3,-967.7 -142.1,294.9 -358.7,579.6 -688.1,785.1 -973.1,606.9 -2060.4,323.6 -2701.7,-387.4 -314,-348.3 -435,-702.9 -449.6,-1015.3 295,1001.6 1238.6,1702.3 2234.1,1585.3"
         style="fill:#1e5384;fill-opacity:1;fill-rule:nonzero;stroke:none"
         id="path220" /><path
         d="m 17835.8,24962.3 c 219.3,133.9 579.2,531.8 503.6,820.4 -490.3,-495.4 -2005.9,-1468.2 -2687.4,-596.8 530,483.7 1173.1,606.9 2058.4,576.4 -498.6,192.6 -1559.1,358.3 -2188.4,-161.5 418.8,1046.2 1327.9,1398.4 2484.8,741.9 -1189.6,1402.1 -2326.5,380.4 -2664.4,-23.4 384.9,930.4 1132.5,1194.5 2361.5,827.9 -658,470.9 -2457.4,881.9 -2833.9,-1334.6 -22.9,-69.3 -132.8,-133.4 -165.9,-148.8 37.7,-157.4 99.4,-292.4 167.1,-394 0,0 393,-172.9 544.6,-304.2 425.9,-742.9 1545,-417.5 1960.6,-134.7 716.3,234.9 700.5,-520.2 1369,-589.6 404.6,-42 889.6,124.4 956.4,496.5 -164,-229.8 -441.1,-368.5 -912.2,-336.1 -321.8,22.2 -539.4,539.4 -953.8,560.6"
         style="fill:#081828;fill-opacity:1;fill-rule:nonzero;stroke:none"
         id="path222" /><path
         d="m 17302.6,24740.6 -38.4,66 c 366.3,213.9 903.9,639.7 903.9,639.7 -19.9,-19.7 -490.8,-486.8 -865.5,-705.7"
         style="fill:#00080f;fill-opacity:1;fill-rule:nonzero;stroke:none"
         id="path224" /><path
         d="m 15557.9,25273 -53.7,54.1 c 722.2,717 1834.9,482.6 1834.9,482.6 -10.8,1.7 -1086.5,152.8 -1781.2,-536.7"
         style="fill:#00080f;fill-opacity:1;fill-rule:nonzero;stroke:none"
         id="path226" /><path
         d="m 15184.9,25401.9 -74.9,14.1 c 1.9,9.8 195,979.2 1111.6,1360.3 919.1,381.9 1738.8,-387.1 1738.8,-387.1 -8.2,6.8 -833.9,680.5 -1709.5,316.6 -879.1,-365.4 -1064.2,-1294.6 -1066,-1303.9"
         style="fill:#00080f;fill-opacity:1;fill-rule:nonzero;stroke:none"
         id="path228" /><path
         d="m 15045,25451.9 c -103.7,372.4 16.7,1311.8 764.7,1795.7 760.2,492 1888.9,-97.9 1888.9,-97.9 -11.1,5.1 -1122.4,502.9 -1847.5,33.9 -715.2,-462.6 -831.2,-1357 -732.6,-1711.2 l -73.5,-20.5"
         style="fill:#00080f;fill-opacity:1;fill-rule:nonzero;stroke:none"
         id="path230" /><path
         d="m 17604.2,24913.7 c 261.4,9.8 406.1,-138.2 559.2,-295 149.1,-152.5 303.2,-310.1 586,-339.5 54,-5.6 109.8,-7.4 165.8,-5.3 310.7,11.7 656.5,149.6 738.3,424.9 -274.9,-140.9 -509.8,-128.6 -676.9,31.6 -153.5,147.1 -242.4,418.3 -243.9,744.1 -1.6,321.4 -73.5,1411.9 -934.1,1948.6 -364.6,227.5 -771.2,339.7 -1175.8,324.5 -553.4,-20.7 -1091.9,-277.7 -1477.4,-705.1 -633.7,-702.7 -456.9,-1421 -248.5,-1742.4 64.8,-29 401.8,-182.6 543.9,-305.7 l 4.9,-4.2 3.2,-5.6 c 217.5,-379.4 613.8,-445.9 908,-434.9 391.5,14.7 791.8,172.4 998,312.7 l 9.6,4.7 c 87.2,28.6 165.5,43.8 239.7,46.6 z m 1313.9,-716 c -59.6,-2.2 -119,-0.3 -176.5,5.6 -310.4,32.2 -481.6,207.5 -632.7,362.1 -147.2,150.6 -274.2,280.6 -501.9,272.1 -65.5,-2.5 -135.4,-15.9 -213.7,-41.2 -223.1,-150.2 -627.6,-307.6 -1033.5,-322.9 -313.8,-11.7 -736.6,60.1 -973.7,467.4 -149.1,125.7 -526.4,292.4 -530.3,294.1 l -10.1,4.5 -6.3,9.2 c -223.2,335.1 -421.8,1100.8 249.4,1845 399.2,442.6 957.2,708.7 1531.1,730.2 419.9,15.7 841.5,-100.5 1219.1,-335.9 893.7,-557.4 968.4,-1681.7 969.9,-2013 1.5,-305.3 81.9,-556.6 220.5,-689.4 156.7,-150.4 384.1,-143.2 657.9,19.1 l 65.5,38.9 -8.2,-75.7 c -40,-373.9 -444,-555.7 -826.5,-570.1"
         style="fill:#00080f;fill-opacity:1;fill-rule:nonzero;stroke:none"
         id="path232" /><path
         d="m 14491.5,24707 c 83.2,198.6 288.9,568.9 406.8,693.6 128,135.3 696.6,47.5 668.9,-230.3 -27.8,-277.7 -162.9,-631.3 -212.5,-706.2 -49.8,-75 -863.2,242.9 -863.2,242.9"
         style="fill:#f7dc01;fill-opacity:1;fill-rule:nonzero;stroke:none"
         id="path234" /><path
         d="m 14898.3,25400.6 c -117.9,-124.7 -323.6,-495 -406.8,-693.6 0,0 52.7,-20.6 131.9,-50 166.3,263.7 292.5,564.8 483.2,805.9 -90.6,-1 -169.6,-21.4 -208.3,-62.3"
         style="fill:#fff4e6;fill-opacity:1;fill-rule:nonzero;stroke:none"
         id="path236" /><path
         d="m 15354.3,25420.7 c -99.7,-308.8 -205.8,-614.7 -406.7,-877.5 195.1,-63.7 383.8,-114 407.1,-79.1 49.6,74.9 184.7,428.5 212.5,706.2 11.9,119.5 -86.6,203.8 -212.9,250.4"
         style="fill:#efa614;fill-opacity:1;fill-rule:nonzero;stroke:none"
         id="path238" /><path
         d="m 14542.3,24728.2 c 206.3,-79.1 657.8,-241.8 777.5,-237.4 2.9,0.2 5.3,0.4 7,0.6 49.8,83.1 176.4,422.6 202.4,682.8 4.6,45.2 -10.7,86.8 -45.3,123.6 -84.3,89.7 -261,131.6 -391.9,126.8 -76.9,-2.9 -139,-21.7 -166,-50.1 -103.8,-109.7 -289.3,-433.7 -383.7,-646.3 z m 780.3,-313.6 c -166.5,-6.2 -776,229.9 -844.9,256.8 l -36.4,14.2 15.1,36.1 c 80.8,193.1 290.4,574.3 414.2,705.1 41.6,44 119.2,70.3 218.6,74 143.6,5.4 345.7,-39.5 450.3,-150.8 49.6,-52.8 72.3,-116.3 65.6,-183.5 -28.8,-288.3 -166,-644.1 -218.7,-723.5 -17.7,-26.6 -52.4,-27.9 -63.8,-28.4"
         style="fill:#af3600;fill-opacity:1;fill-rule:nonzero;stroke:none"
         id="path240" /><path
         d="m 14766.5,25221.4 c -50.3,-78.7 -102.9,-169.7 -150.2,-258.2 412.9,-13.1 663,-254.2 769.5,-439.3 32.6,70.6 75.5,184.5 112.1,311 -150.9,323.1 -502.5,387.1 -731.4,386.5"
         style="fill:#87001d;fill-opacity:1;fill-rule:nonzero;stroke:none"
         id="path242" /><path
         d="m 14766.5,25221.4 c -50.3,-78.7 -102.9,-169.7 -150.2,-258.2 60.7,-1.9 117.5,-9.3 171.3,-20.2 48.6,89.6 96.8,179.5 148.2,266.5 -60.2,8.6 -117.9,12.1 -169.3,11.9"
         style="fill:#c65270;fill-opacity:1;fill-rule:nonzero;stroke:none"
         id="path244" /><path
         d="m 15246.5,25107.1 c -38.5,-101.8 -81.3,-201.8 -131.6,-298.4 128,-85.3 217.6,-192.1 270.9,-284.8 32.6,70.6 75.5,184.5 112.1,311 -59.2,127 -149.7,213.5 -251.4,272.2"
         style="fill:#600019;fill-opacity:1;fill-rule:nonzero;stroke:none"
         id="path246" /><path
         d="m 14678.4,24997.8 c 391.7,-33.6 607.8,-262.1 700.7,-393 27,66.9 54.6,147 78.1,226.8 -146.8,296.1 -473.1,348.7 -669.8,351.6 -35.2,-56.1 -72.2,-119.1 -109,-185.4 z m 711.2,-556.8 -36.8,63.9 c -54.6,94.8 -269.3,405.4 -737.7,420.2 l -61.5,2 29.1,54.1 c 50.6,94.5 103,184.6 151.7,260.7 l 11.2,17.6 20.8,0.1 c 172.7,0.4 593.1,-38.4 766.1,-408.5 l 6.1,-13 -4,-13.7 c -33.5,-115.8 -76.1,-234.1 -114.1,-316.5 l -30.9,-66.9"
         style="fill:#33000d;fill-opacity:1;fill-rule:nonzero;stroke:none"
         id="path248" /><path
         d="m 14527.6,24846.7 c 764.7,-35.1 3031.1,-764.3 2663.7,-3182.6 -169.7,-1075 -219.5,-1363.2 -262,-1841.8 -42.3,-478.6 -243.6,-1726.6 -2772.2,-1725.9 -310.9,-366.3 -1107.5,-552.6 -1787.7,-334.1 -399.4,128.3 -906.4,424 -954.3,863.3 -667.2,383.1 -1304.1,938.7 -1169.6,2174 108.9,999.6 850.6,1323.2 1224.6,2291.4 374,968.1 1068.3,1878.3 3057.5,1755.7"
         style="fill:#00a7e8;fill-opacity:1;fill-rule:nonzero;stroke:none"
         id="path250" /><path
         d="m 14134,21514.5 c -538.3,0 -653.6,434.7 -653.6,434.7 7.8,-12.2 194.2,-298.1 653.6,-298.1 472.3,0 815.4,309 818.8,312.1 0,0 -291.8,-448.7 -818.8,-448.7"
         style="fill:#000000;fill-opacity:1;fill-rule:nonzero;stroke:none"
         id="path252" /><path
         d="m 13609.6,22399.8 c 152.5,70.7 686.3,216.5 1112.3,-67.9 -71,197.4 -639.7,526.5 -1112.3,67.9"
         style="fill:#71deff;fill-opacity:1;fill-rule:nonzero;stroke:none"
         id="path254" /><path
         d="m 14721.9,22331.9 c -7.4,11.1 -186.1,275.3 -548.1,275.3 -366.2,0 -562.2,-205.3 -564.2,-207.4 0,0 156.3,298.4 564.2,298.4 412.5,0 548.1,-366.3 548.1,-366.3"
         style="fill:#000000;fill-opacity:1;fill-rule:nonzero;stroke:none"
         id="path256" /><path
         d="m 12068,22898 c 139.5,-27.2 479,-63.3 614,-439.7 78.5,97.5 19.9,272 -98.9,378.3 -118.8,106.4 -335.8,105.8 -515.1,61.4"
         style="fill:#71deff;fill-opacity:1;fill-rule:nonzero;stroke:none"
         id="path258" /><path
         d="m 12692.6,22533.3 c -14.8,119.5 -64.5,211.6 -147.8,273.8 -184.4,137.7 -473.9,91.4 -476.8,90.9 0,0 316.1,142.8 531.2,-17.9 104,-77.6 165.8,-190.5 183.7,-335.6 l -90.3,-11.2"
         style="fill:#000000;fill-opacity:1;fill-rule:nonzero;stroke:none"
         id="path260" /><path
         d="m 12299.9,21831.1 c -619.1,130.4 -532.6,627.2 -532.6,627.2 1.6,-15.7 44.2,-384.7 560.7,-493.5 l -28.1,-133.7"
         style="fill:#000000;fill-opacity:1;fill-rule:nonzero;stroke:none"
         id="path262" /><path
         d="m 11671.1,23006 c 554.5,1612.6 2010.4,1680.1 2823.1,1629.5 950.8,-59.3 1531.1,-344.7 1916.5,-602.6 -634.9,564.7 -1469.9,781 -1877.7,799.6 -1989.3,122.7 -2683.5,-787.5 -3057.6,-1755.6 -287.4,-744 -791.5,-1107.5 -1059.2,-1689.4 449.5,645.5 982.5,826.5 1254.9,1618.5"
         style="fill:#71deff;fill-opacity:1;fill-rule:nonzero;stroke:none"
         id="path264" /><path
         d="m 16240.2,24172.9 c 441.6,-525.5 836.2,-1208.4 503.6,-2151.9 -500,-1417.9 -180.7,-1800.8 -718.1,-2737 -286.4,-506.8 -1186.7,-922.2 -1664.1,-405.7 -390.7,-778 -1261.5,-868.8 -1999.8,-642.3 -854,261.9 -807.2,709.5 -833.3,1132.5 -124.2,-126.3 -167.2,-299.6 -221.6,-452 -801.2,562.8 -1158.3,1445.1 -881.7,2490.3 -85.3,-180.3 -148.2,-381.2 -174.3,-621.2 -134.6,-1235.3 502.2,-1791 1169.6,-2174 47.8,-439.4 554.7,-735.1 954.2,-863.4 680.3,-218.5 1476.8,-32.2 1787.7,334.1 2528.6,-0.7 2729.9,1247.2 2772.2,1725.9 42.4,478.6 92.3,766.8 262,1841.8 188.5,1240.9 -316.6,2037.1 -956.4,2522.9"
         style="fill:#007eb5;fill-opacity:1;fill-rule:nonzero;stroke:none"
         id="path266" /><path
         d="m 12826.3,19355.3 c -7.1,-0.3 -14.2,-0.6 -21.5,-0.8 -971.9,-29.9 -1156.4,692.4 -1158.2,699.8 l 74.2,17.8 c 6.7,-27.4 173.6,-669.3 1081.8,-641.3 922.5,27.5 1359,462.4 1363.2,466.7 l 54.7,-53.2 c -18.2,-18.6 -452.4,-453.7 -1394.2,-489"
         style="fill:#1c2649;fill-opacity:1;fill-rule:nonzero;stroke:none"
         id="path268" /><path
         d="m 14275.5,19637.1 c -0.4,1.3 -41.6,137.7 -113.6,197.9 -60.6,50.5 -175.8,76.5 -215.1,82.2 0,0 174.6,50.9 263.9,-23.7 90,-75 64.8,-256.4 64.8,-256.4"
         style="fill:#1c2649;fill-opacity:1;fill-rule:nonzero;stroke:none"
         id="path270" /><path
         d="m 11394.7,18534.4 c -59.4,331.3 91.1,550.7 91.1,550.7 -0.8,-2.2 -71.8,-226 -16,-537.3 l -75.1,-13.4"
         style="fill:#1c2649;fill-opacity:1;fill-rule:nonzero;stroke:none"
         id="path272" /><path
         d="m 14132.9,17995.8 -54.5,53.4 c 204,207.9 280.6,564.5 281.4,568.1 0,0 -7.4,-397.8 -226.9,-621.5"
         style="fill:#1c2649;fill-opacity:1;fill-rule:nonzero;stroke:none"
         id="path274" /><path
         d="m 13999.3,24802.2 c -1633.6,-61.3 -2188,-961.6 -2488.3,-1739.1 -162.1,-419.7 -389.5,-715.9 -609.4,-1002.3 -283.8,-369.4 -551.7,-718.4 -612.8,-1279.4 -133.3,-1224.4 506.8,-1767.3 1150.6,-2136.8 l 16.8,-9.6 2.2,-19.3 c 44.4,-407.4 508.4,-696.5 928,-831.2 211,-67.8 446.9,-99 682,-90.1 448.5,16.8 866.4,178.7 1064.9,412.5 l 11.4,13.5 h 17.7 c 1106.9,0 1891.4,240.2 2330.2,712.3 314.5,338.4 381.2,720.7 404,978.9 37.8,425.6 80.9,698.2 209.1,1507.5 l 53.2,336.8 c 123.9,815.2 -42.9,1508.5 -495.7,2060.2 -613.4,747.7 -1611.1,1054.5 -2132,1078.4 -185.3,11.3 -364.1,13.9 -531.9,7.7 z m -928,-7184.1 c -244,-9.1 -488.9,23.3 -708.2,93.7 -435.9,140 -917.9,442.8 -978.2,876.2 -659.5,381.6 -1308.9,944.1 -1171.9,2201.7 63.3,582.2 337.6,939.3 628.1,1317.6 216.6,282.1 440.5,573.8 598.8,983.3 308.7,799.3 878.4,1724.9 2556.6,1787.8 170.2,6.4 351.6,3.7 538.8,-7.8 533.9,-24.4 1557.6,-339.2 2186.9,-1106.1 467.1,-569.2 639.4,-1282.5 512.1,-2120.3 l -53.4,-337 c -127.7,-807.4 -170.8,-1079.3 -208.3,-1502.4 -97.8,-1105.5 -952.1,-1696.2 -2539.1,-1755.8 -82.1,-3 -167.5,-4.7 -253.8,-4.9 -218.5,-245.8 -640.9,-408.5 -1108.4,-426"
         style="fill:#1c2649;fill-opacity:1;fill-rule:nonzero;stroke:none"
         id="path276" /><path
         d="m 12764.8,18947.7 c -60.1,0.3 -120.6,6.6 -179,17.2 -285.6,-939.9 -809.9,-774.9 -1115.6,-538.8 146,-337.6 564.1,-568.6 904.5,-677.9 535.3,-171.9 1142.4,-93.1 1528.4,126.7 -791.3,-97 -1226.7,314.2 -1138.3,1072.8"
         style="fill:#112847;fill-opacity:1;fill-rule:nonzero;stroke:none"
         id="path278" /><path
         d="m 12964.4,18131.3 c -279.1,3.7 -553.3,48 -812.8,166.6 -240.3,-127.5 -499.6,-12.3 -681.4,128.2 146,-337.6 564.1,-568.6 904.5,-677.9 535.3,-171.9 1142.4,-93.1 1528.4,126.7 -423.4,-51.9 -744.9,41.8 -938.7,256.4"
         style="fill:#081828;fill-opacity:1;fill-rule:nonzero;stroke:none"
         id="path280" /><path
         d="m 13898.5,17912.7 c -405.7,-49.8 -725.4,38.2 -912.3,250.8 -160.2,182.1 -222.6,452.3 -182.9,785.1 -25.6,-1.1 -51.3,-1.3 -77.1,0 -40,-350.9 29.3,-638.3 202.7,-835.4 171.4,-194.9 439.5,-295 776.9,-290.4 -189.4,-75.1 -409.5,-119.9 -637.7,-128.4 -235,-8.9 -470.8,22.3 -681.7,90.1 -285.6,91.7 -623.7,271.6 -803.1,520.6 104.7,-58.7 231.7,-105.4 366.9,-100.3 300.1,11.3 526.4,265 673.6,754 -25.5,3.7 -50.8,8.3 -75.6,13.6 -136.6,-448.7 -338.3,-681.5 -600.8,-691.4 -178.9,-6.7 -345.6,91.7 -453.9,175.4 l -98.8,78 40.5,-123.4 c 186.8,-432.2 757.4,-644.5 927.9,-699.2 219.3,-70.4 464.1,-102.8 707.9,-93.6 316.4,11.8 618.6,91.2 851,223.6 l 137.5,90.7 -161,-19.8"
         style="fill:#00080f;fill-opacity:1;fill-rule:nonzero;stroke:none"
         id="path282" /><path
         d="m 12845.1,18907 c -60,-2.2 -122.5,-1.4 -187.3,3.3 -697.8,50.7 -771.6,555.9 -771.6,555.9 5.3,-17.7 134.7,-433.2 777.1,-479.8 653.9,-47.6 1066.4,321.8 1070.5,325.4 0,0 -312.1,-383.2 -888.7,-404.8"
         style="fill:#1c2649;fill-opacity:1;fill-rule:nonzero;stroke:none"
         id="path284" /><path
         d="m 16803.4,21225.1 c 0,0 290.5,1127.1 1429.9,1532.4 -172.4,-493.1 -250.7,-1202.1 -292.1,-1881.1 -41.4,-679 -255.6,-1201.4 -628.2,-1314.9 -523.6,-159.5 -705.7,514.1 -705.7,514.1 l 196.1,1149.5"
         style="fill:#00a7e8;fill-opacity:1;fill-rule:nonzero;stroke:none"
         id="path286" /><path
         d="m 17187.1,21903.8 c 191.9,140.8 461.6,486.5 891.7,691.8 -26.3,-147.3 -88.9,-612.6 -54,-724 44.8,160.7 115.8,644.1 208.5,885.9 -157,-53.9 -779.4,-334.8 -1046.2,-853.7"
         style="fill:#71deff;fill-opacity:1;fill-rule:nonzero;stroke:none"
         id="path288" /><path
         d="m 17982,21753.8 c -167.7,-617 -150.7,-1119.3 -511.9,-1667.1 -232.3,-302.4 -514.5,-242.8 -523,71.6 -12,448 99.5,1038.9 264.6,1851 -308.9,-400.3 -408.3,-784.2 -408.3,-784.2 0,0 -69.4,-236.3 -123.7,-485.3 -67.2,-307.8 -72.4,-664.2 -72.4,-664.2 0,0 182.1,-673.6 705.7,-514.1 372.6,113.5 586.8,635.9 628.2,1314.9 25.6,420.4 65.5,852.3 133,1237.4 -52,-116.7 -67.4,-242.2 -92.2,-360"
         style="fill:#007eb5;fill-opacity:1;fill-rule:nonzero;stroke:none"
         id="path290" /><path
         d="m 16757,20141.5 c 0.9,24.8 25.4,613 281.8,1101.7 256.1,488.1 857.4,972.2 882.8,992.6 0,0 -566.8,-554.2 -815.3,-1028 -248.4,-473.5 -349.3,-1066.3 -349.3,-1066.3"
         style="fill:#1c2649;fill-opacity:1;fill-rule:nonzero;stroke:none"
         id="path292" /><path
         d="m 17070.8,21137.9 -61.2,45.5 c 178,238.6 641.1,64.9 641.1,64.9 -4.2,1 -431.4,88.9 -579.9,-110.4"
         style="fill:#1c2649;fill-opacity:1;fill-rule:nonzero;stroke:none"
         id="path294" /><path
         d="m 17178.6,19499.5 c -87.4,-3.3 -168.7,17 -242.9,60.7 -247.4,145.9 -325.3,500.5 -328.4,515.4 0,0 148.9,-321.2 367.4,-449.8 94.7,-55.7 204.8,-65.1 327.1,-27.9 333.8,101.7 558.7,580.5 601.3,1280.7 49,804.7 137.1,1399.9 268.7,1815 -384.6,-153.2 -661.2,-393.5 -857.1,-636.6 -336,-416.8 -511.3,-831.9 -511.3,-831.9 1.7,7.2 104.7,448.3 453.3,880.6 215.8,267.6 525.7,531.8 963.8,687.7 l 75,26.7 -26.3,-75.2 c -143.3,-410.5 -238.3,-1022.5 -289.9,-1870.9 -45.4,-744.3 -284.2,-1236 -655.3,-1349 -50,-15.3 -98.6,-23.7 -145.4,-25.5"
         style="fill:#1c2649;fill-opacity:1;fill-rule:nonzero;stroke:none"
         id="path296" /><path
         d="m 10545.2,20739.3 c 91,117.9 364,303.1 605.5,-117.3 128.3,-281.4 709.5,-266 913.1,-563.7 203.8,-297.7 657.4,-565.3 1189.2,-368.9 302.7,111.8 619.3,402.4 963.3,519.5 260.3,88.6 551.4,116.9 834,-185.1 -29.9,285.2 -331.6,700.1 -1211.6,247.3 -880,-452.8 -1309.5,-23.6 -1517.8,102.2 -208.3,125.8 -810.3,71.1 -983.5,332 -253.3,381.8 -785.5,533.6 -792.2,34"
         style="fill:#112847;fill-opacity:1;fill-rule:nonzero;stroke:none"
         id="path298" /><path
         d="m 11155.5,20760.7 c -220.7,254.1 -419.7,239.4 -597.6,90.8 -7.6,-33.1 -12.2,-70.2 -12.7,-112.2 91,117.9 364,303.1 605.5,-117.3 3.3,-7.4 7.2,-14.3 11.1,-21.3 23,45.4 -1.1,117 -6.3,160"
         style="fill:#081828;fill-opacity:1;fill-rule:nonzero;stroke:none"
         id="path300" /><path
         d="m 13225.4,19851.9 c -500.2,-209.5 -887.1,57.4 -1092,431.4 -26.8,-75.3 -72.2,-122.2 -126.3,-158.7 21.1,-20.2 40.3,-42.2 56.7,-66.3 203.8,-297.7 657.4,-565.3 1189.2,-368.9 302.7,111.8 619.3,402.4 963.3,519.5 260.3,88.6 551.4,116.9 834,-185.1 -0.6,5 -1.4,10 -2.1,15.1 -508,694.7 -1215.3,53.3 -1822.8,-187"
         style="fill:#081828;fill-opacity:1;fill-rule:nonzero;stroke:none"
         id="path302" /><path
         d="m 10800.5,20921.2 c 99.3,3.7 246.3,-41.9 383.3,-280.1 60,-131.3 232.6,-194.5 415.3,-261.6 191.1,-70.1 388.8,-142.6 496.2,-299.7 138.5,-202.4 438.6,-433.5 828.7,-418.9 104.8,3.9 211,25.6 315.8,64.2 138.7,51.3 280.7,141.3 431.1,236.7 170.5,108 346.8,219.8 533.1,283.2 111.9,38.1 210.5,58.2 301.6,61.6 177,6.6 334.6,-48.5 478.8,-168 -60,160.5 -213.2,305.2 -498.8,294.6 -177.8,-6.7 -389.7,-72.6 -629.5,-196 -249.9,-128.6 -487.1,-198 -704.9,-206.1 -375.7,-14.1 -614.5,149.8 -772.5,258.2 -29.5,20.2 -54.9,37.7 -77.5,51.3 -74.2,44.9 -211.8,66.1 -357.4,88.7 -245,38 -522.7,81 -638.2,255 -132.5,199.6 -350.1,340 -517.2,333.8 -121.5,-4.6 -174,-85.3 -194.1,-176.8 56,43.2 127.2,77 206.2,79.9 z m 2126.3,-1336.5 c -420.6,-15.8 -737.8,223.2 -894.4,452.1 -93.7,136.9 -279.6,205.1 -459.5,271.1 -198.2,72.7 -385.4,141.3 -456.9,298.3 -93.1,161.6 -198.8,243.1 -312.7,238.8 -97.5,-3.7 -183.8,-71.8 -227.9,-129 l -69.9,-90.5 1.6,114.3 c 4.2,310.7 196.1,351.5 278.4,354.6 195.1,7.3 435.1,-144.1 583.6,-368 96.9,-145.8 356.9,-186.1 586.3,-221.7 153.4,-23.7 298.2,-46.2 385.3,-98.8 24.4,-14.8 50.7,-32.8 81.2,-53.7 149.8,-102.8 376,-258 726.5,-244.9 206.5,7.7 433,74.2 672.8,197.7 249.9,128.6 472.5,197.3 661.6,204.4 381.9,14.4 579.2,-231.6 605.3,-481.6 l 11.8,-113 -77.6,83 c -153.2,163.7 -321.3,239.8 -513.8,232.6 -84.9,-3.2 -173.8,-21.5 -279.9,-57.6 -177.6,-60.5 -350.1,-169.8 -516.8,-275.5 -153.9,-97.5 -299.2,-189.6 -445.6,-243.7 -112.3,-41.5 -226.5,-64.7 -339.4,-68.9"
         style="fill:#020f1e;fill-opacity:1;fill-rule:nonzero;stroke:none"
         id="path304" /><path
         d="m 13978.6,23371 c 94.6,404.3 455.8,866.3 1059.6,710.8 603.7,-155.5 614.9,-964.8 540.8,-1194.8 -479,732.7 -917.6,894.4 -1600.4,484"
         style="fill:#112847;fill-opacity:1;fill-rule:nonzero;stroke:none"
         id="path306" /><path
         d="m 15610.6,23154.6 c -1.5,331.6 -122.1,811.2 -572.4,927.2 -400.5,103.1 -694.1,-65.5 -874.1,-308.6 609.3,377 1232.3,213.5 1446.5,-618.6"
         style="fill:#284666;fill-opacity:1;fill-rule:nonzero;stroke:none"
         id="path308" /><path
         d="m 14601.5,23629.4 c 344.8,12.9 643.1,-187.3 959.4,-646.8 25.6,174.5 14.6,489.1 -120.6,734.6 -94.5,171.4 -233,281.6 -411.7,327.6 -86.8,22.4 -171.6,32.2 -252.3,29.1 -378.5,-14.1 -633.5,-310.4 -735.8,-623.3 207.1,113.9 391.4,172.5 561,178.8 z m 989.4,-830.1 -43.8,66.9 c -318.8,487.6 -609.6,699.4 -942.8,687 -178.3,-6.7 -376.6,-77 -606,-214.9 l -77.4,-46.6 20.6,88 c 86.8,371.3 377.8,753.5 831.9,770.5 88.1,3.3 180.3,-7.4 274.2,-31.5 199.9,-51.5 354.5,-174.2 459.5,-364.7 174.5,-316.8 156.6,-728.6 108.3,-878.7 l -24.5,-76"
         style="fill:#00080f;fill-opacity:1;fill-rule:nonzero;stroke:none"
         id="path310" /><path
         d="m 13215.5,23426.1 c 137.9,312.8 328.7,794.1 -165.9,931 -409.8,113.5 -910.2,-411 -961.4,-699.1 598.7,447 881.2,375.9 1127.3,-231.9"
         style="fill:#112847;fill-opacity:1;fill-rule:nonzero;stroke:none"
         id="path312" /><path
         d="m 13368.8,23937.9 c 9.1,184.7 -62.9,348.3 -319.2,419.2 -301.1,83.4 -650.8,-177.6 -835.6,-436.2 571.3,485.1 940.9,417.7 1154.8,17"
         style="fill:#284666;fill-opacity:1;fill-rule:nonzero;stroke:none"
         id="path314" /><path
         d="m 12688.1,23983.6 c 216.2,8.1 381,-134.9 527.7,-461 74.8,177.1 165.4,434.5 82.8,608.7 -43.1,90.8 -127.9,152.8 -259.3,189.1 -39.7,11 -82,15.7 -125.6,14.1 -300.3,-11.3 -639.8,-331.1 -753,-577.3 215.1,148.6 384.4,221 527.4,226.4 z m 526,-655.4 -33.9,83.6 c -143.7,354.8 -290,503.1 -489.3,495.6 -147.3,-5.5 -331.5,-94.5 -579.9,-280 l -77.2,-57.6 16.8,94.9 c 49.3,277.2 463,731.2 860.3,746 51.4,2 101.5,-3.7 148.8,-16.8 151.8,-42 255.4,-119.4 307.8,-230 111.4,-234.7 -37.2,-572 -117.1,-753.2 l -36.3,-82.5"
         style="fill:#00080f;fill-opacity:1;fill-rule:nonzero;stroke:none"
         id="path316" /><path
         d="m 12391.7,23330.9 c 0,0 457.7,2.5 405.3,-509.9 -52.4,-512.4 -612.6,-967.6 -695.1,-1185.4 -362.2,-137.5 -972.6,-527.8 -994.4,-1091.5 -21.8,-563.8 392.5,-755 873.2,-639.9 372.8,89.1 444.4,320.3 672.6,341.6 228.1,21.2 656.8,-18.5 597.5,435.8 -55.7,427.3 -453.6,479.2 -712.1,332.7 -253.3,-143.4 -428.2,-431.3 -428.2,-431.3 0,0 -224.1,313.5 109.5,616 750.6,680.7 1013.2,1046.5 950,1718.4 -65.9,699.3 -778.3,413.5 -778.3,413.5"
         style="fill:#00a7e8;fill-opacity:1;fill-rule:nonzero;stroke:none"
         id="path318" /><path
         d="m 12525.8,23331.4 c 213,-41.3 399.1,-143 373.4,-502.8 -32.8,-460 -429.4,-925.8 -597,-1107.9 -87.2,-47.7 -200.3,-85.1 -200.3,-85.1 79.6,166.6 362.3,431.6 504.8,704.1 142.4,272.5 200.9,438.2 185.2,616 -16.4,186.6 -126.7,326 -266.1,375.7"
         style="fill:#71deff;fill-opacity:1;fill-rule:nonzero;stroke:none"
         id="path320" /><path
         d="m 12844,21944 c -586.7,-382.2 -1050.5,-505.4 -1391.4,-932.4 -250.4,-313.6 -297.5,-590.8 -285.2,-793.1 -50.8,81.6 -88,375.9 5,629.9 93.1,253.9 414.8,506.5 654,655.3 239.1,148.6 1017.6,440.3 1017.6,440.3"
         style="fill:#71deff;fill-opacity:1;fill-rule:nonzero;stroke:none"
         id="path322" /><path
         d="m 12850.3,21086.6 c 153,-87.8 266.2,-268.7 256.1,-455.1 -13.2,-113.5 -58.1,-160.1 -140.2,-164.4 -303.4,-49.5 -458.7,20.2 -771.5,-226 -286.1,-240.3 -942.8,-283.4 -1082.3,156.6 50.3,-449.9 431.8,-598 868.3,-493.5 372.8,89.1 444.4,320.3 672.6,341.6 228.1,21.2 656.8,-18.5 597.5,435.8 -35.6,273 -211,392.3 -400.5,405"
         style="fill:#007eb5;fill-opacity:1;fill-rule:nonzero;stroke:none"
         id="path324" /><path
         d="m 12020.6,21560.6 -28.6,70.6 c 411,166.1 852,312.8 852,312.8 -4,-2.2 -408.8,-215.9 -823.4,-383.4"
         style="fill:#1c2649;fill-opacity:1;fill-rule:nonzero;stroke:none"
         id="path326" /><path
         d="m 11760,19834.3 c -190,-7.1 -354.3,40.5 -475.6,140.1 -150.3,123.3 -224.7,320.9 -215,571.1 22.6,583.6 634,975.2 1003.5,1119.9 34.5,76.7 112.2,171.7 208.9,289.8 187.2,228.7 443.7,542 477.2,869.7 15.5,151 -13.8,272.1 -87,360.2 -108,130.2 -278.6,145.7 -280.3,145.8 0,0 209.2,58.5 338.3,-96.2 87.3,-104.5 122.6,-245.1 104.9,-417.6 -35.8,-350.5 -300.7,-674 -494.1,-910.3 -95.2,-116.4 -177.6,-216.9 -203.2,-284.7 l -6.1,-16 -16,-6.1 c -326.1,-123.9 -948.5,-504.3 -969.9,-1057.4 -8.7,-225.5 56,-401.6 187.2,-509.3 149.1,-122.3 376,-155 639,-92.1 190,45.4 298,128.9 393.3,202.6 85.6,66.3 166.6,128.9 284.7,140 28.1,2.5 59.3,4.3 92.1,6.1 147.2,8 330.5,18.2 419.3,125 50,60.3 66.9,145.9 51.8,261.8 -20.7,158.7 -93.4,273.4 -210.2,331.7 -128.3,64.1 -303.2,53.3 -445.3,-27.3 -239.8,-135.7 -447,-398.1 -447,-398.1 6,12.9 148.5,316.7 409.3,464.5 163.7,92.8 366.7,104.2 517.1,29.1 98,-48.9 221.2,-156.2 251.7,-390 17.8,-136.3 -5.3,-244.1 -68.7,-320.4 -110.1,-132.5 -311.8,-143.6 -473.8,-152.5 -31.9,-1.7 -62,-3.3 -89.2,-5.9 -96,-8.9 -161.8,-59.9 -245.2,-124.3 -96.3,-74.6 -216.2,-167.2 -422.1,-216.5 -79.8,-19.1 -156.6,-29.9 -229.6,-32.7"
         style="fill:#1c2649;fill-opacity:1;fill-rule:nonzero;stroke:none"
         id="path328" /><path
         d="m 15663.9,26735.2 c 640.5,479.8 1378.5,640.1 2285.9,-60.6 -328.6,452 -1439.4,982.9 -2285.9,60.6"
         style="fill:#1e5384;fill-opacity:1;fill-rule:nonzero;stroke:none"
         id="path330" /></g></g></svg>
